<?xml version="1.0" encoding="utf-8" standalone="no"?>
<!DOCTYPE svg PUBLIC "-//W3C//DTD SVG 1.1//EN"
  "http://www.w3.org/Graphics/SVG/1.1/DTD/svg11.dtd">
<svg xmlns:xlink="http://www.w3.org/1999/xlink" width="518.4pt" height="518.4pt" viewBox="0 0 518.4 518.4" xmlns="http://www.w3.org/2000/svg" version="1.1">
 <metadata>
  <rdf:RDF xmlns:dc="http://purl.org/dc/elements/1.1/" xmlns:cc="http://creativecommons.org/ns#" xmlns:rdf="http://www.w3.org/1999/02/22-rdf-syntax-ns#">
   <cc:Work>
    <dc:type rdf:resource="http://purl.org/dc/dcmitype/StillImage"/>
    <dc:date>2022-05-06T11:31:19.244505</dc:date>
    <dc:format>image/svg+xml</dc:format>
    <dc:creator>
     <cc:Agent>
      <dc:title>Matplotlib v3.5.1, https://matplotlib.org/</dc:title>
     </cc:Agent>
    </dc:creator>
   </cc:Work>
  </rdf:RDF>
 </metadata>
 <defs>
  <style type="text/css">*{stroke-linejoin: round; stroke-linecap: butt}</style>
 </defs>
 <g id="figure_1">
  <g id="patch_1">
   <path d="M 0 518.4 
L 518.4 518.4 
L 518.4 0 
L 0 0 
z
" style="fill: #ffffff"/>
  </g>
  <g id="axes_1">
   <g id="patch_2">
    <path d="M 7.2 511.2 
L 511.2 511.2 
L 511.2 7.2 
L 7.2 7.2 
z
" style="fill: #ffffff"/>
   </g>
   <g id="PathCollection_1">
    <defs>
     <path id="m02dd3e4001" d="M 0 3 
C 0.795609 3 1.55874 2.683901 2.12132 2.12132 
C 2.683901 1.55874 3 0.795609 3 0 
C 3 -0.795609 2.683901 -1.55874 2.12132 -2.12132 
C 1.55874 -2.683901 0.795609 -3 0 -3 
C -0.795609 -3 -1.55874 -2.683901 -2.12132 -2.12132 
C -2.683901 -1.55874 -3 -0.795609 -3 0 
C -3 0.795609 -2.683901 1.55874 -2.12132 2.12132 
C -1.55874 2.683901 -0.795609 3 0 3 
z
" style="stroke: #1ac938"/>
    </defs>
    <g clip-path="url(#p088ea37bf1)">
     <use xlink:href="#m02dd3e4001" x="251.735968" y="50.935537" style="fill: #1ac938; stroke: #1ac938"/>
    </g>
   </g>
   <g id="PathCollection_2">
    <defs>
     <path id="mfdefd2a362" d="M 0 3 
C 0.795609 3 1.55874 2.683901 2.12132 2.12132 
C 2.683901 1.55874 3 0.795609 3 0 
C 3 -0.795609 2.683901 -1.55874 2.12132 -2.12132 
C 1.55874 -2.683901 0.795609 -3 0 -3 
C -0.795609 -3 -1.55874 -2.683901 -2.12132 -2.12132 
C -2.683901 -1.55874 -3 -0.795609 -3 0 
C -3 0.795609 -2.683901 1.55874 -2.12132 2.12132 
C -1.55874 2.683901 -0.795609 3 0 3 
z
" style="stroke: #ffc400"/>
    </defs>
    <g clip-path="url(#p088ea37bf1)">
     <use xlink:href="#mfdefd2a362" x="251.735968" y="50.935537" style="fill: #ffc400; stroke: #ffc400"/>
    </g>
   </g>
   <g id="PathCollection_3">
    <defs>
     <path id="m1c504f9a91" d="M 0 3 
C 0.795609 3 1.55874 2.683901 2.12132 2.12132 
C 2.683901 1.55874 3 0.795609 3 0 
C 3 -0.795609 2.683901 -1.55874 2.12132 -2.12132 
C 1.55874 -2.683901 0.795609 -3 0 -3 
C -0.795609 -3 -1.55874 -2.683901 -2.12132 -2.12132 
C -2.683901 -1.55874 -3 -0.795609 -3 0 
C -3 0.795609 -2.683901 1.55874 -2.12132 2.12132 
C -1.55874 2.683901 -0.795609 3 0 3 
z
" style="stroke: #9f4800"/>
    </defs>
    <g clip-path="url(#p088ea37bf1)">
     <use xlink:href="#m1c504f9a91" x="251.735968" y="50.935537" style="fill: #9f4800; stroke: #9f4800"/>
    </g>
   </g>
   <g id="patch_3">
    <path d="M 248.387171 58.921155 
Q 242.032161 74.075455 236.109523 88.198711 
" clip-path="url(#p088ea37bf1)" style="fill: none; stroke: #001c7f; stroke-linecap: round"/>
    <path d="M 239.500815 85.283383 
L 236.109523 88.198711 
L 235.812036 83.73648 
L 239.500815 85.283383 
z
" clip-path="url(#p088ea37bf1)" style="fill: #001c7f; stroke: #001c7f; stroke-linecap: round"/>
   </g>
   <g id="patch_4">
    <path d="M 232.327868 152.155433 
Q 232.327868 166.63839 232.327868 180.003312 
" clip-path="url(#p088ea37bf1)" style="fill: none; stroke: #001c7f; stroke-linecap: round"/>
    <path d="M 234.327868 176.003312 
L 232.327868 180.003312 
L 230.327868 176.003312 
L 234.327868 176.003312 
z
" clip-path="url(#p088ea37bf1)" style="fill: #001c7f; stroke: #001c7f; stroke-linecap: round"/>
   </g>
   <g id="patch_5">
    <path d="M 271.144068 152.155433 
Q 271.144068 166.63839 271.144068 180.003312 
" clip-path="url(#p088ea37bf1)" style="fill: none; stroke: #001c7f; stroke-linecap: round"/>
    <path d="M 273.144068 176.003312 
L 271.144068 180.003312 
L 269.144068 176.003312 
L 273.144068 176.003312 
z
" clip-path="url(#p088ea37bf1)" style="fill: #001c7f; stroke: #001c7f; stroke-linecap: round"/>
   </g>
   <g id="patch_6">
    <path d="M 255.084766 244.045122 
Q 261.439776 259.199422 267.362414 273.322678 
" clip-path="url(#p088ea37bf1)" style="fill: none; stroke: #001c7f; stroke-linecap: round"/>
    <path d="M 267.6599 268.860447 
L 267.362414 273.322678 
L 263.971121 270.40735 
L 267.6599 268.860447 
z
" clip-path="url(#p088ea37bf1)" style="fill: #001c7f; stroke: #001c7f; stroke-linecap: round"/>
   </g>
   <g id="patch_7">
    <path d="M 193.511669 244.717417 
Q 193.511669 259.200373 193.511669 272.565296 
" clip-path="url(#p088ea37bf1)" style="fill: none; stroke: #001c7f; stroke-linecap: round"/>
    <path d="M 195.511669 268.565296 
L 193.511669 272.565296 
L 191.511669 268.565296 
L 195.511669 268.565296 
z
" clip-path="url(#p088ea37bf1)" style="fill: #001c7f; stroke: #001c7f; stroke-linecap: round"/>
   </g>
   <g id="patch_8">
    <path d="M 309.960268 244.717417 
Q 309.960268 259.200373 309.960268 272.565296 
" clip-path="url(#p088ea37bf1)" style="fill: none; stroke: #001c7f; stroke-linecap: round"/>
    <path d="M 311.960268 268.565296 
L 309.960268 272.565296 
L 307.960268 268.565296 
L 311.960268 268.565296 
z
" clip-path="url(#p088ea37bf1)" style="fill: #001c7f; stroke: #001c7f; stroke-linecap: round"/>
   </g>
   <g id="patch_9">
    <path d="M 216.268566 336.607106 
Q 222.623576 351.761406 228.546214 365.884661 
" clip-path="url(#p088ea37bf1)" style="fill: none; stroke: #001c7f; stroke-linecap: round"/>
    <path d="M 228.843701 361.42243 
L 228.546214 365.884661 
L 225.154922 362.969333 
L 228.843701 361.42243 
z
" clip-path="url(#p088ea37bf1)" style="fill: #001c7f; stroke: #001c7f; stroke-linecap: round"/>
   </g>
   <g id="patch_10">
    <path d="M 293.900965 336.607106 
Q 300.255976 351.761406 306.178613 365.884661 
" clip-path="url(#p088ea37bf1)" style="fill: none; stroke: #001c7f; stroke-linecap: round"/>
    <path d="M 306.4761 361.42243 
L 306.178613 365.884661 
L 302.787321 362.969333 
L 306.4761 361.42243 
z
" clip-path="url(#p088ea37bf1)" style="fill: #001c7f; stroke: #001c7f; stroke-linecap: round"/>
   </g>
   <g id="patch_11">
    <path d="M 149.129085 335.256867 
Q 135.286992 351.76095 122.16336 367.408404 
" clip-path="url(#p088ea37bf1)" style="fill: none; stroke: #001c7f; stroke-linecap: round"/>
    <path d="M 126.266189 365.628856 
L 122.16336 367.408404 
L 123.201419 363.058412 
L 126.266189 365.628856 
z
" clip-path="url(#p088ea37bf1)" style="fill: #001c7f; stroke: #001c7f; stroke-linecap: round"/>
   </g>
   <g id="patch_12">
    <path d="M 247.913181 428.954407 
Q 240.352878 444.322937 233.286091 458.688252 
" clip-path="url(#p088ea37bf1)" style="fill: none; stroke: #001c7f; stroke-linecap: round"/>
    <path d="M 236.846354 455.981866 
L 233.286091 458.688252 
L 233.25714 454.216209 
L 236.846354 455.981866 
z
" clip-path="url(#p088ea37bf1)" style="fill: #001c7f; stroke: #001c7f; stroke-linecap: round"/>
   </g>
   <g id="patch_13">
    <path d="M 156.067679 428.270813 
Q 144.804433 444.323608 134.183343 459.461178 
" clip-path="url(#p088ea37bf1)" style="fill: none; stroke: #001c7f; stroke-linecap: round"/>
    <path d="M 138.117993 457.335495 
L 134.183343 459.461178 
L 134.843587 455.038048 
L 138.117993 457.335495 
z
" clip-path="url(#p088ea37bf1)" style="fill: #001c7f; stroke: #001c7f; stroke-linecap: round"/>
   </g>
   <g id="patch_14">
    <path d="M 349.017248 429.841384 
Q 349.211911 444.32434 349.391548 457.689364 
" clip-path="url(#p088ea37bf1)" style="fill: none; stroke: #001c7f; stroke-linecap: round"/>
    <path d="M 351.337609 453.662846 
L 349.391548 457.689364 
L 347.33797 453.716604 
L 351.337609 453.662846 
z
" clip-path="url(#p088ea37bf1)" style="fill: #001c7f; stroke: #001c7f; stroke-linecap: round"/>
   </g>
   <g id="patch_15">
    <path d="M 93.186416 427.163504 
Q 75.195495 444.324127 58.013591 460.713069 
" clip-path="url(#p088ea37bf1)" style="fill: none; stroke: #001c7f; stroke-linecap: round"/>
    <path d="M 62.288444 459.399435 
L 58.013591 460.713069 
L 59.527595 456.505006 
L 62.288444 459.399435 
z
" clip-path="url(#p088ea37bf1)" style="fill: #001c7f; stroke: #001c7f; stroke-linecap: round"/>
   </g>
   <g id="patch_16">
    <path d="M 354.341608 335.256867 
Q 368.183701 351.76095 381.307333 367.408404 
" clip-path="url(#p088ea37bf1)" style="fill: none; stroke: #001c7f; stroke-linecap: round"/>
    <path d="M 380.269273 363.058412 
L 381.307333 367.408404 
L 377.204503 365.628856 
L 380.269273 363.058412 
z
" clip-path="url(#p088ea37bf1)" style="fill: #001c7f; stroke: #001c7f; stroke-linecap: round"/>
   </g>
   <g id="patch_17">
    <path d="M 428.850537 429.841384 
Q 428.772672 444.32434 428.700818 457.689279 
" clip-path="url(#p088ea37bf1)" style="fill: none; stroke: #001c7f; stroke-linecap: round"/>
    <path d="M 430.722294 453.700089 
L 428.700818 457.689279 
L 426.722352 453.678584 
L 430.722294 453.700089 
z
" clip-path="url(#p088ea37bf1)" style="fill: #001c7f; stroke: #001c7f; stroke-linecap: round"/>
   </g>
   <g id="patch_18">
    <path d="M 255.084766 58.921155 
Q 261.439776 74.075455 267.362414 88.198711 
" clip-path="url(#p088ea37bf1)" style="fill: none; stroke: #12711c; stroke-linecap: round"/>
    <path d="M 267.6599 83.73648 
L 267.362414 88.198711 
L 263.971121 85.283383 
L 267.6599 83.73648 
z
" clip-path="url(#p088ea37bf1)" style="fill: #12711c; stroke: #12711c; stroke-linecap: round"/>
   </g>
   <g id="patch_19">
    <path d="M 226.762728 150.1329 
Q 212.920635 166.636983 199.797003 182.284437 
" clip-path="url(#p088ea37bf1)" style="fill: none; stroke: #12711c; stroke-linecap: round"/>
    <path d="M 203.899833 180.504889 
L 199.797003 182.284437 
L 200.835063 177.934445 
L 203.899833 180.504889 
z
" clip-path="url(#p088ea37bf1)" style="fill: #12711c; stroke: #12711c; stroke-linecap: round"/>
   </g>
   <g id="patch_20">
    <path d="M 276.709208 150.1329 
Q 290.551301 166.636983 303.674933 182.284437 
" clip-path="url(#p088ea37bf1)" style="fill: none; stroke: #12711c; stroke-linecap: round"/>
    <path d="M 302.636874 177.934445 
L 303.674933 182.284437 
L 299.572104 180.504889 
L 302.636874 177.934445 
z
" clip-path="url(#p088ea37bf1)" style="fill: #12711c; stroke: #12711c; stroke-linecap: round"/>
   </g>
   <g id="patch_21">
    <path d="M 248.387171 244.045122 
Q 242.032161 259.199422 236.109523 273.322678 
" clip-path="url(#p088ea37bf1)" style="fill: none; stroke: #12711c; stroke-linecap: round"/>
    <path d="M 239.500815 270.40735 
L 236.109523 273.322678 
L 235.812036 268.860447 
L 239.500815 270.40735 
z
" clip-path="url(#p088ea37bf1)" style="fill: #12711c; stroke: #12711c; stroke-linecap: round"/>
   </g>
   <g id="patch_22">
    <path d="M 187.94635 242.694883 
Q 174.103814 259.198966 160.979752 274.846432 
" clip-path="url(#p088ea37bf1)" style="fill: none; stroke: #12711c; stroke-linecap: round"/>
    <path d="M 165.082609 273.066949 
L 160.979752 274.846432 
L 162.01788 270.496456 
L 165.082609 273.066949 
z
" clip-path="url(#p088ea37bf1)" style="fill: #12711c; stroke: #12711c; stroke-linecap: round"/>
   </g>
   <g id="patch_23">
    <path d="M 315.525408 242.694883 
Q 329.367501 259.198966 342.491133 274.846421 
" clip-path="url(#p088ea37bf1)" style="fill: none; stroke: #12711c; stroke-linecap: round"/>
    <path d="M 341.453073 270.496428 
L 342.491133 274.846421 
L 338.388303 273.066873 
L 341.453073 270.496428 
z
" clip-path="url(#p088ea37bf1)" style="fill: #12711c; stroke: #12711c; stroke-linecap: round"/>
   </g>
   <g id="patch_24">
    <path d="M 209.570971 336.607106 
Q 203.215961 351.761406 197.293323 365.884661 
" clip-path="url(#p088ea37bf1)" style="fill: none; stroke: #12711c; stroke-linecap: round"/>
    <path d="M 200.684616 362.969333 
L 197.293323 365.884661 
L 196.995836 361.42243 
L 200.684616 362.969333 
z
" clip-path="url(#p088ea37bf1)" style="fill: #12711c; stroke: #12711c; stroke-linecap: round"/>
   </g>
   <g id="patch_25">
    <path d="M 287.20337 336.607106 
Q 280.84836 351.761406 274.925723 365.884661 
" clip-path="url(#p088ea37bf1)" style="fill: none; stroke: #12711c; stroke-linecap: round"/>
    <path d="M 278.317015 362.969333 
L 274.925723 365.884661 
L 274.628236 361.42243 
L 278.317015 362.969333 
z
" clip-path="url(#p088ea37bf1)" style="fill: #12711c; stroke: #12711c; stroke-linecap: round"/>
   </g>
   <g id="patch_26">
    <path d="M 154.694225 337.2794 
Q 154.694225 351.762357 154.694225 365.127279 
" clip-path="url(#p088ea37bf1)" style="fill: none; stroke: #12711c; stroke-linecap: round"/>
    <path d="M 156.694225 361.127279 
L 154.694225 365.127279 
L 152.694225 361.127279 
L 156.694225 361.127279 
z
" clip-path="url(#p088ea37bf1)" style="fill: #12711c; stroke: #12711c; stroke-linecap: round"/>
   </g>
   <g id="patch_27">
    <path d="M 258.549424 426.530756 
Q 281.220217 444.323077 303.011495 461.425144 
" clip-path="url(#p088ea37bf1)" style="fill: none; stroke: #12711c; stroke-linecap: round"/>
    <path d="M 301.099609 457.382287 
L 303.011495 461.425144 
L 298.630078 460.528938 
L 301.099609 457.382287 
z
" clip-path="url(#p088ea37bf1)" style="fill: #12711c; stroke: #12711c; stroke-linecap: round"/>
   </g>
   <g id="patch_28">
    <path d="M 162.21655 429.76229 
Q 164.212594 444.321717 166.056781 457.773471 
" clip-path="url(#p088ea37bf1)" style="fill: none; stroke: #12711c; stroke-linecap: round"/>
    <path d="M 167.494943 453.538888 
L 166.056781 457.773471 
L 163.532012 454.082191 
L 167.494943 453.538888 
z
" clip-path="url(#p088ea37bf1)" style="fill: #12711c; stroke: #12711c; stroke-linecap: round"/>
   </g>
   <g id="patch_29">
    <path d="M 354.537587 427.756705 
Q 368.743598 444.323012 382.221816 460.040605 
" clip-path="url(#p088ea37bf1)" style="fill: none; stroke: #12711c; stroke-linecap: round"/>
    <path d="M 381.13621 455.702234 
L 382.221816 460.040605 
L 378.099756 458.306067 
L 381.13621 455.702234 
z
" clip-path="url(#p088ea37bf1)" style="fill: #12711c; stroke: #12711c; stroke-linecap: round"/>
   </g>
   <g id="patch_30">
    <path d="M 97.67833 429.660599 
Q 94.603776 444.323902 91.758658 457.892966 
" clip-path="url(#p088ea37bf1)" style="fill: none; stroke: #12711c; stroke-linecap: round"/>
    <path d="M 94.536949 454.388526 
L 91.758658 457.892966 
L 90.622081 453.567669 
L 94.536949 454.388526 
z
" clip-path="url(#p088ea37bf1)" style="fill: #12711c; stroke: #12711c; stroke-linecap: round"/>
   </g>
   <g id="patch_31">
    <path d="M 348.776468 337.2794 
Q 348.776468 351.762357 348.776468 365.127279 
" clip-path="url(#p088ea37bf1)" style="fill: none; stroke: #12711c; stroke-linecap: round"/>
    <path d="M 350.776468 361.127279 
L 348.776468 365.127279 
L 346.776468 361.127279 
L 350.776468 361.127279 
z
" clip-path="url(#p088ea37bf1)" style="fill: #12711c; stroke: #12711c; stroke-linecap: round"/>
   </g>
   <g id="patch_32">
    <path d="M 434.440675 427.835799 
Q 448.180094 444.323152 461.203767 459.951606 
" clip-path="url(#p088ea37bf1)" style="fill: none; stroke: #12711c; stroke-linecap: round"/>
    <path d="M 460.179479 455.59835 
L 461.203767 459.951606 
L 457.10659 458.159083 
L 460.179479 455.59835 
z
" clip-path="url(#p088ea37bf1)" style="fill: #12711c; stroke: #12711c; stroke-linecap: round"/>
   </g>
   <g id="patch_33">
    <path d="M 232.327868 105.874442 
Q 232.327868 120.357398 232.327868 133.890026 
" clip-path="url(#p088ea37bf1)" style="fill: none; stroke: #3c3c3c; stroke-width: 0.85; stroke-linecap: round"/>
    <path d="M 234.327868 129.890026 
L 232.327868 133.890026 
L 230.327868 129.890026 
L 234.327868 129.890026 
z
" clip-path="url(#p088ea37bf1)" style="fill: #3c3c3c; stroke: #3c3c3c; stroke-width: 0.85; stroke-linecap: round"/>
   </g>
   <g id="patch_34">
    <path d="M 237.893008 103.851908 
Q 251.735101 120.355991 265.469425 136.73158 
" clip-path="url(#p088ea37bf1)" style="fill: none; stroke: #3c3c3c; stroke-width: 0.15; stroke-linecap: round"/>
    <path d="M 264.431366 132.381588 
L 265.469425 136.73158 
L 261.366596 134.952033 
L 264.431366 132.381588 
z
" clip-path="url(#p088ea37bf1)" style="fill: #3c3c3c; stroke: #3c3c3c; stroke-width: 0.15; stroke-linecap: round"/>
   </g>
   <g id="patch_35">
    <path d="M 265.578928 103.851908 
Q 251.736835 120.355991 238.002511 136.73158 
" clip-path="url(#p088ea37bf1)" style="fill: none; stroke: #3c3c3c; stroke-width: 0.15; stroke-linecap: round"/>
    <path d="M 242.105341 134.952033 
L 238.002511 136.73158 
L 239.040571 132.381588 
L 242.105341 134.952033 
z
" clip-path="url(#p088ea37bf1)" style="fill: #3c3c3c; stroke: #3c3c3c; stroke-width: 0.15; stroke-linecap: round"/>
   </g>
   <g id="patch_36">
    <path d="M 271.144068 105.874442 
Q 271.144068 120.357398 271.144068 133.890026 
" clip-path="url(#p088ea37bf1)" style="fill: none; stroke: #3c3c3c; stroke-width: 0.85; stroke-linecap: round"/>
    <path d="M 273.144068 129.890026 
L 271.144068 133.890026 
L 269.144068 129.890026 
L 273.144068 129.890026 
z
" clip-path="url(#p088ea37bf1)" style="fill: #3c3c3c; stroke: #3c3c3c; stroke-width: 0.85; stroke-linecap: round"/>
   </g>
   <g id="patch_37">
    <path d="M 235.676666 197.76413 
Q 242.031676 212.918431 248.32183 227.918074 
" clip-path="url(#p088ea37bf1)" style="fill: none; stroke: #3c3c3c; stroke-width: 0.15; stroke-linecap: round"/>
    <path d="M 248.619317 223.455844 
L 248.32183 227.918074 
L 244.930538 225.002746 
L 248.619317 223.455844 
z
" clip-path="url(#p088ea37bf1)" style="fill: #3c3c3c; stroke: #3c3c3c; stroke-width: 0.15; stroke-linecap: round"/>
   </g>
   <g id="patch_38">
    <path d="M 226.762728 196.413891 
Q 212.920635 212.917975 199.689234 228.693923 
" clip-path="url(#p088ea37bf1)" style="fill: none; stroke: #3c3c3c; stroke-width: 0.85; stroke-linecap: round"/>
    <path d="M 203.792064 226.914376 
L 199.689234 228.693923 
L 200.727294 224.343931 
L 203.792064 226.914376 
z
" clip-path="url(#p088ea37bf1)" style="fill: #3c3c3c; stroke: #3c3c3c; stroke-width: 0.85; stroke-linecap: round"/>
   </g>
   <g id="patch_39">
    <path d="M 200.28863 195.165344 
Q 222.622565 212.918012 244.212562 230.079343 
" clip-path="url(#p088ea37bf1)" style="fill: none; stroke: #3c3c3c; stroke-width: 0.85; stroke-linecap: round"/>
    <path d="M 242.325763 226.024717 
L 244.212562 230.079343 
L 239.836782 229.156006 
L 242.325763 226.024717 
z
" clip-path="url(#p088ea37bf1)" style="fill: #3c3c3c; stroke: #3c3c3c; stroke-width: 0.85; stroke-linecap: round"/>
   </g>
   <g id="patch_40">
    <path d="M 193.511669 198.436425 
Q 193.511669 212.919382 193.511669 227.234633 
" clip-path="url(#p088ea37bf1)" style="fill: none; stroke: #3c3c3c; stroke-width: 0.15; stroke-linecap: round"/>
    <path d="M 195.511669 223.234633 
L 193.511669 227.234633 
L 191.511669 223.234633 
L 195.511669 223.234633 
z
" clip-path="url(#p088ea37bf1)" style="fill: #3c3c3c; stroke: #3c3c3c; stroke-width: 0.15; stroke-linecap: round"/>
   </g>
   <g id="patch_41">
    <path d="M 267.795271 197.76413 
Q 261.44026 212.918431 255.452767 227.196343 
" clip-path="url(#p088ea37bf1)" style="fill: none; stroke: #3c3c3c; stroke-width: 0.85; stroke-linecap: round"/>
    <path d="M 258.844059 224.281015 
L 255.452767 227.196343 
L 255.15528 222.734112 
L 258.844059 224.281015 
z
" clip-path="url(#p088ea37bf1)" style="fill: #3c3c3c; stroke: #3c3c3c; stroke-width: 0.85; stroke-linecap: round"/>
   </g>
   <g id="patch_42">
    <path d="M 276.709208 196.413891 
Q 290.551301 212.917975 304.285625 229.293564 
" clip-path="url(#p088ea37bf1)" style="fill: none; stroke: #3c3c3c; stroke-width: 0.15; stroke-linecap: round"/>
    <path d="M 303.247566 224.943571 
L 304.285625 229.293564 
L 300.182796 227.514016 
L 303.247566 224.943571 
z
" clip-path="url(#p088ea37bf1)" style="fill: #3c3c3c; stroke: #3c3c3c; stroke-width: 0.15; stroke-linecap: round"/>
   </g>
   <g id="patch_43">
    <path d="M 303.183306 195.165344 
Q 280.849371 212.918012 258.64672 230.566326 
" clip-path="url(#p088ea37bf1)" style="fill: none; stroke: #3c3c3c; stroke-width: 0.15; stroke-linecap: round"/>
    <path d="M 263.022499 229.64299 
L 258.64672 230.566326 
L 260.533518 226.511701 
L 263.022499 229.64299 
z
" clip-path="url(#p088ea37bf1)" style="fill: #3c3c3c; stroke: #3c3c3c; stroke-width: 0.15; stroke-linecap: round"/>
   </g>
   <g id="patch_44">
    <path d="M 309.960268 198.436425 
Q 309.960268 212.919382 309.960268 226.452009 
" clip-path="url(#p088ea37bf1)" style="fill: none; stroke: #3c3c3c; stroke-width: 0.85; stroke-linecap: round"/>
    <path d="M 311.960268 222.452009 
L 309.960268 226.452009 
L 307.960268 222.452009 
L 311.960268 222.452009 
z
" clip-path="url(#p088ea37bf1)" style="fill: #3c3c3c; stroke: #3c3c3c; stroke-width: 0.85; stroke-linecap: round"/>
   </g>
   <g id="patch_45">
    <path d="M 264.367106 287.727328 
Q 242.033171 305.479996 220.443175 322.641326 
" clip-path="url(#p088ea37bf1)" style="fill: none; stroke: #3c3c3c; stroke-width: 0.85; stroke-linecap: round"/>
    <path d="M 224.818955 321.71799 
L 220.443175 322.641326 
L 222.329974 318.5867 
L 224.818955 321.71799 
z
" clip-path="url(#p088ea37bf1)" style="fill: #3c3c3c; stroke: #3c3c3c; stroke-width: 0.85; stroke-linecap: round"/>
   </g>
   <g id="patch_46">
    <path d="M 274.492866 290.326114 
Q 280.847876 305.480414 287.13803 320.480058 
" clip-path="url(#p088ea37bf1)" style="fill: none; stroke: #3c3c3c; stroke-width: 0.15; stroke-linecap: round"/>
    <path d="M 287.435517 316.017827 
L 287.13803 320.480058 
L 283.746738 317.56473 
L 287.435517 316.017827 
z
" clip-path="url(#p088ea37bf1)" style="fill: #3c3c3c; stroke: #3c3c3c; stroke-width: 0.15; stroke-linecap: round"/>
   </g>
   <g id="patch_47">
    <path d="M 228.979071 290.326114 
Q 222.624061 305.480414 216.333906 320.480058 
" clip-path="url(#p088ea37bf1)" style="fill: none; stroke: #3c3c3c; stroke-width: 0.15; stroke-linecap: round"/>
    <path d="M 219.725199 317.56473 
L 216.333906 320.480058 
L 216.03642 316.017827 
L 219.725199 317.56473 
z
" clip-path="url(#p088ea37bf1)" style="fill: #3c3c3c; stroke: #3c3c3c; stroke-width: 0.15; stroke-linecap: round"/>
   </g>
   <g id="patch_48">
    <path d="M 239.10483 287.727328 
Q 261.438765 305.479996 283.028761 322.641326 
" clip-path="url(#p088ea37bf1)" style="fill: none; stroke: #3c3c3c; stroke-width: 0.85; stroke-linecap: round"/>
    <path d="M 281.141962 318.5867 
L 283.028761 322.641326 
L 278.652981 321.71799 
L 281.141962 318.5867 
z
" clip-path="url(#p088ea37bf1)" style="fill: #3c3c3c; stroke: #3c3c3c; stroke-width: 0.85; stroke-linecap: round"/>
   </g>
   <g id="patch_49">
    <path d="M 196.860466 290.326114 
Q 203.215476 305.480414 209.20297 319.758326 
" clip-path="url(#p088ea37bf1)" style="fill: none; stroke: #3c3c3c; stroke-width: 0.85; stroke-linecap: round"/>
    <path d="M 209.500457 315.296095 
L 209.20297 319.758326 
L 205.811678 316.842998 
L 209.500457 315.296095 
z
" clip-path="url(#p088ea37bf1)" style="fill: #3c3c3c; stroke: #3c3c3c; stroke-width: 0.85; stroke-linecap: round"/>
   </g>
   <g id="patch_50">
    <path d="M 187.94635 288.975875 
Q 174.103814 305.479958 160.369048 321.855549 
" clip-path="url(#p088ea37bf1)" style="fill: none; stroke: #3c3c3c; stroke-width: 0.15; stroke-linecap: round"/>
    <path d="M 164.471906 320.076066 
L 160.369048 321.855549 
L 161.407176 317.505573 
L 164.471906 320.076066 
z
" clip-path="url(#p088ea37bf1)" style="fill: #3c3c3c; stroke: #3c3c3c; stroke-width: 0.15; stroke-linecap: round"/>
   </g>
   <g id="patch_51">
    <path d="M 161.471331 287.727328 
Q 183.805744 305.479996 206.008871 323.128311 
" clip-path="url(#p088ea37bf1)" style="fill: none; stroke: #3c3c3c; stroke-width: 0.15; stroke-linecap: round"/>
    <path d="M 204.12203 319.073705 
L 206.008871 323.128311 
L 201.633082 322.205021 
L 204.12203 319.073705 
z
" clip-path="url(#p088ea37bf1)" style="fill: #3c3c3c; stroke: #3c3c3c; stroke-width: 0.15; stroke-linecap: round"/>
   </g>
   <g id="patch_52">
    <path d="M 154.694225 290.998408 
Q 154.694225 305.481365 154.694225 319.013993 
" clip-path="url(#p088ea37bf1)" style="fill: none; stroke: #3c3c3c; stroke-width: 0.85; stroke-linecap: round"/>
    <path d="M 156.694225 315.013993 
L 154.694225 319.013993 
L 152.694225 315.013993 
L 156.694225 315.013993 
z
" clip-path="url(#p088ea37bf1)" style="fill: #3c3c3c; stroke: #3c3c3c; stroke-width: 0.85; stroke-linecap: round"/>
   </g>
   <g id="patch_53">
    <path d="M 235.676666 382.888097 
Q 242.031676 398.042398 248.01917 412.320309 
" clip-path="url(#p088ea37bf1)" style="fill: none; stroke: #3c3c3c; stroke-width: 0.85; stroke-linecap: round"/>
    <path d="M 248.316656 407.858079 
L 248.01917 412.320309 
L 244.627877 409.404982 
L 248.316656 407.858079 
z
" clip-path="url(#p088ea37bf1)" style="fill: #3c3c3c; stroke: #3c3c3c; stroke-width: 0.85; stroke-linecap: round"/>
   </g>
   <g id="patch_54">
    <path d="M 225.063807 379.618429 
Q 196.684302 398.042875 168.445458 416.376 
" clip-path="url(#p088ea37bf1)" style="fill: none; stroke: #3c3c3c; stroke-width: 0.15; stroke-linecap: round"/>
    <path d="M 172.889486 415.875383 
L 168.445458 416.376 
L 170.71138 412.520408 
L 172.889486 415.875383 
z
" clip-path="url(#p088ea37bf1)" style="fill: #3c3c3c; stroke: #3c3c3c; stroke-width: 0.15; stroke-linecap: round"/>
   </g>
   <g id="patch_55">
    <path d="M 200.28863 380.289311 
Q 222.622565 398.041979 244.825217 415.690293 
" clip-path="url(#p088ea37bf1)" style="fill: none; stroke: #3c3c3c; stroke-width: 0.15; stroke-linecap: round"/>
    <path d="M 242.938418 411.635668 
L 244.825217 415.690293 
L 240.449437 414.766957 
L 242.938418 411.635668 
z
" clip-path="url(#p088ea37bf1)" style="fill: #3c3c3c; stroke: #3c3c3c; stroke-width: 0.15; stroke-linecap: round"/>
   </g>
   <g id="patch_56">
    <path d="M 188.539113 381.989821 
Q 177.276299 398.042616 166.559303 413.31746 
" clip-path="url(#p088ea37bf1)" style="fill: none; stroke: #3c3c3c; stroke-width: 0.85; stroke-linecap: round"/>
    <path d="M 170.493915 411.191706 
L 166.559303 413.31746 
L 167.219467 408.894318 
L 170.493915 411.191706 
z
" clip-path="url(#p088ea37bf1)" style="fill: #3c3c3c; stroke: #3c3c3c; stroke-width: 0.85; stroke-linecap: round"/>
   </g>
   <g id="patch_57">
    <path d="M 303.183306 380.289311 
Q 280.849371 398.041979 259.259375 415.203309 
" clip-path="url(#p088ea37bf1)" style="fill: none; stroke: #3c3c3c; stroke-width: 0.85; stroke-linecap: round"/>
    <path d="M 263.635155 414.279973 
L 259.259375 415.203309 
L 261.146174 411.148684 
L 263.635155 414.279973 
z
" clip-path="url(#p088ea37bf1)" style="fill: #3c3c3c; stroke: #3c3c3c; stroke-width: 0.85; stroke-linecap: round"/>
   </g>
   <g id="patch_58">
    <path d="M 315.533738 381.526559 
Q 329.430264 398.042608 343.218819 414.430332 
" clip-path="url(#p088ea37bf1)" style="fill: none; stroke: #3c3c3c; stroke-width: 0.15; stroke-linecap: round"/>
    <path d="M 342.173905 410.081981 
L 343.218819 414.430332 
L 339.11319 412.657252 
L 342.173905 410.081981 
z
" clip-path="url(#p088ea37bf1)" style="fill: #3c3c3c; stroke: #3c3c3c; stroke-width: 0.15; stroke-linecap: round"/>
   </g>
   <g id="patch_59">
    <path d="M 267.795271 382.888097 
Q 261.44026 398.042398 255.150106 413.042041 
" clip-path="url(#p088ea37bf1)" style="fill: none; stroke: #3c3c3c; stroke-width: 0.15; stroke-linecap: round"/>
    <path d="M 258.541398 410.126713 
L 255.150106 413.042041 
L 254.852619 408.579811 
L 258.541398 410.126713 
z
" clip-path="url(#p088ea37bf1)" style="fill: #3c3c3c; stroke: #3c3c3c; stroke-width: 0.15; stroke-linecap: round"/>
   </g>
   <g id="patch_60">
    <path d="M 278.588011 379.333127 
Q 310.021519 398.042407 340.638403 416.265631 
" clip-path="url(#p088ea37bf1)" style="fill: none; stroke: #3c3c3c; stroke-width: 0.85; stroke-linecap: round"/>
    <path d="M 338.224099 412.501175 
L 340.638403 416.265631 
L 336.178255 415.938401 
L 338.224099 412.501175 
z
" clip-path="url(#p088ea37bf1)" style="fill: #3c3c3c; stroke: #3c3c3c; stroke-width: 0.85; stroke-linecap: round"/>
   </g>
   <g id="patch_61">
    <path d="M 229.441412 458.817496 
Q 240.352344 259.200491 251.202257 60.699854 
" clip-path="url(#p088ea37bf1)" style="fill: none; stroke: #3c3c3c; stroke-linecap: round"/>
    <path d="M 248.986927 64.584736 
L 251.202257 60.699854 
L 252.980965 64.803048 
L 248.986927 64.584736 
z
" clip-path="url(#p088ea37bf1)" style="fill: #3c3c3c; stroke: #3c3c3c; stroke-linecap: round"/>
   </g>
   <g id="patch_62">
    <path d="M 309.492423 458.887409 
Q 281.221186 259.19884 253.106675 60.617265 
" clip-path="url(#p088ea37bf1)" style="fill: none; stroke: #3c3c3c; stroke-linecap: round"/>
    <path d="M 251.687137 64.858127 
L 253.106675 60.617265 
L 255.647642 64.297412 
L 251.687137 64.858127 
z
" clip-path="url(#p088ea37bf1)" style="fill: #3c3c3c; stroke: #3c3c3c; stroke-linecap: round"/>
   </g>
   <g id="patch_63">
    <path d="M 131.023366 459.160705 
Q 190.151562 259.201322 248.962723 60.31408 
" clip-path="url(#p088ea37bf1)" style="fill: none; stroke: #3c3c3c; stroke-linecap: round"/>
    <path d="M 245.910562 63.582767 
L 248.962723 60.31408 
L 249.746376 64.717021 
L 245.910562 63.582767 
z
" clip-path="url(#p088ea37bf1)" style="fill: #3c3c3c; stroke: #3c3c3c; stroke-linecap: round"/>
   </g>
   <g id="patch_64">
    <path d="M 169.104286 458.976389 
Q 209.560536 259.200681 249.79488 60.520764 
" clip-path="url(#p088ea37bf1)" style="fill: none; stroke: #3c3c3c; stroke-linecap: round"/>
    <path d="M 247.040752 64.044226 
L 249.79488 60.520764 
L 250.961172 64.838143 
L 247.040752 64.044226 
z
" clip-path="url(#p088ea37bf1)" style="fill: #3c3c3c; stroke: #3c3c3c; stroke-linecap: round"/>
   </g>
   <g id="patch_65">
    <path d="M 347.543648 459.033591 
Q 300.629155 259.198742 253.970192 60.452334 
" clip-path="url(#p088ea37bf1)" style="fill: none; stroke: #3c3c3c; stroke-linecap: round"/>
    <path d="M 252.937338 64.803566 
L 253.970192 60.452334 
L 256.831465 63.889356 
L 252.937338 64.803566 
z
" clip-path="url(#p088ea37bf1)" style="fill: #3c3c3c; stroke: #3c3c3c; stroke-linecap: round"/>
   </g>
   <g id="patch_66">
    <path d="M 385.884785 459.236974 
Q 320.161874 259.199736 254.787944 60.224671 
" clip-path="url(#p088ea37bf1)" style="fill: none; stroke: #3c3c3c; stroke-linecap: round"/>
    <path d="M 254.136422 64.649094 
L 254.787944 60.224671 
L 257.936569 63.400542 
L 254.136422 64.649094 
z
" clip-path="url(#p088ea37bf1)" style="fill: #3c3c3c; stroke: #3c3c3c; stroke-linecap: round"/>
   </g>
   <g id="patch_67">
    <path d="M 121.92853 381.102844 
Q 138.461088 398.044884 154.329931 414.306771 
" clip-path="url(#p088ea37bf1)" style="fill: none; stroke: #3c3c3c; stroke-width: 0.85; stroke-linecap: round"/>
    <path d="M 152.967718 410.047149 
L 154.329931 414.306771 
L 150.104906 412.840768 
L 152.967718 410.047149 
z
" clip-path="url(#p088ea37bf1)" style="fill: #3c3c3c; stroke: #3c3c3c; stroke-width: 0.85; stroke-linecap: round"/>
   </g>
   <g id="patch_68">
    <path d="M 112.982283 383.063233 
Q 107.666297 398.044691 102.406394 412.8681 
" clip-path="url(#p088ea37bf1)" style="fill: none; stroke: #3c3c3c; stroke-width: 0.15; stroke-linecap: round"/>
    <path d="M 105.628886 409.767205 
L 102.406394 412.8681 
L 101.859173 408.429569 
L 105.628886 409.767205 
z
" clip-path="url(#p088ea37bf1)" style="fill: #3c3c3c; stroke: #3c3c3c; stroke-width: 0.15; stroke-linecap: round"/>
   </g>
   <g id="patch_69">
    <path d="M 155.87058 383.481298 
Q 157.867016 398.040725 159.840669 412.434001 
" clip-path="url(#p088ea37bf1)" style="fill: none; stroke: #3c3c3c; stroke-width: 0.15; stroke-linecap: round"/>
    <path d="M 161.278719 408.199381 
L 159.840669 412.434001 
L 157.315803 408.742789 
L 161.278719 408.199381 
z
" clip-path="url(#p088ea37bf1)" style="fill: #3c3c3c; stroke: #3c3c3c; stroke-width: 0.15; stroke-linecap: round"/>
   </g>
   <g id="patch_70">
    <path d="M 148.055768 380.464447 
Q 127.073592 398.04416 106.819862 415.013552 
" clip-path="url(#p088ea37bf1)" style="fill: none; stroke: #3c3c3c; stroke-width: 0.85; stroke-linecap: round"/>
    <path d="M 111.170382 413.977707 
L 106.819862 415.013552 
L 108.601498 410.911629 
L 111.170382 413.977707 
z
" clip-path="url(#p088ea37bf1)" style="fill: #3c3c3c; stroke: #3c3c3c; stroke-width: 0.85; stroke-linecap: round"/>
   </g>
   <g id="patch_71">
    <path d="M 54.696562 459.662808 
Q 151.336399 259.198659 247.490726 59.741624 
" clip-path="url(#p088ea37bf1)" style="fill: none; stroke: #3c3c3c; stroke-linecap: round"/>
    <path d="M 243.952131 62.47628 
L 247.490726 59.741624 
L 247.555294 64.213294 
L 243.952131 62.47628 
z
" clip-path="url(#p088ea37bf1)" style="fill: #3c3c3c; stroke: #3c3c3c; stroke-linecap: round"/>
   </g>
   <g id="patch_72">
    <path d="M 92.889539 459.395867 
Q 170.742734 259.202875 248.190701 60.051896 
" clip-path="url(#p088ea37bf1)" style="fill: none; stroke: #3c3c3c; stroke-linecap: round"/>
    <path d="M 244.876902 63.055017 
L 248.190701 60.051896 
L 248.604918 64.504808 
L 244.876902 63.055017 
z
" clip-path="url(#p088ea37bf1)" style="fill: #3c3c3c; stroke: #3c3c3c; stroke-linecap: round"/>
   </g>
   <g id="patch_73">
    <path d="M 306.61147 290.326114 
Q 300.25646 305.480414 294.268967 319.758326 
" clip-path="url(#p088ea37bf1)" style="fill: none; stroke: #3c3c3c; stroke-width: 0.85; stroke-linecap: round"/>
    <path d="M 297.660259 316.842998 
L 294.268967 319.758326 
L 293.97148 315.296095 
L 297.660259 316.842998 
z
" clip-path="url(#p088ea37bf1)" style="fill: #3c3c3c; stroke: #3c3c3c; stroke-width: 0.85; stroke-linecap: round"/>
   </g>
   <g id="patch_74">
    <path d="M 315.525408 288.975875 
Q 329.367501 305.479958 343.101825 321.855547 
" clip-path="url(#p088ea37bf1)" style="fill: none; stroke: #3c3c3c; stroke-width: 0.15; stroke-linecap: round"/>
    <path d="M 342.063765 317.505555 
L 343.101825 321.855547 
L 338.998995 320.076 
L 342.063765 317.505555 
z
" clip-path="url(#p088ea37bf1)" style="fill: #3c3c3c; stroke: #3c3c3c; stroke-width: 0.15; stroke-linecap: round"/>
   </g>
   <g id="patch_75">
    <path d="M 341.999506 287.727328 
Q 319.665571 305.479996 297.462919 323.12831 
" clip-path="url(#p088ea37bf1)" style="fill: none; stroke: #3c3c3c; stroke-width: 0.15; stroke-linecap: round"/>
    <path d="M 301.838699 322.204974 
L 297.462919 323.12831 
L 299.349718 319.073684 
L 301.838699 322.204974 
z
" clip-path="url(#p088ea37bf1)" style="fill: #3c3c3c; stroke: #3c3c3c; stroke-width: 0.15; stroke-linecap: round"/>
   </g>
   <g id="patch_76">
    <path d="M 348.776468 290.998408 
Q 348.776468 305.481365 348.776468 319.013993 
" clip-path="url(#p088ea37bf1)" style="fill: none; stroke: #3c3c3c; stroke-width: 0.85; stroke-linecap: round"/>
    <path d="M 350.776468 315.013993 
L 348.776468 319.013993 
L 346.776468 315.013993 
L 350.776468 315.013993 
z
" clip-path="url(#p088ea37bf1)" style="fill: #3c3c3c; stroke: #3c3c3c; stroke-width: 0.85; stroke-linecap: round"/>
   </g>
   <g id="patch_77">
    <path d="M 382.035918 381.549157 
Q 368.246168 398.043699 355.065958 413.809141 
" clip-path="url(#p088ea37bf1)" style="fill: none; stroke: #3c3c3c; stroke-width: 0.85; stroke-linecap: round"/>
    <path d="M 359.165971 412.023113 
L 355.065958 413.809141 
L 356.097143 409.457514 
L 359.165971 412.023113 
z
" clip-path="url(#p088ea37bf1)" style="fill: #3c3c3c; stroke: #3c3c3c; stroke-width: 0.85; stroke-linecap: round"/>
   </g>
   <g id="patch_78">
    <path d="M 393.358244 381.362723 
Q 408.243821 398.041793 423.017731 414.595741 
" clip-path="url(#p088ea37bf1)" style="fill: none; stroke: #3c3c3c; stroke-width: 0.15; stroke-linecap: round"/>
    <path d="M 421.846472 410.279707 
L 423.017731 414.595741 
L 418.862148 412.943128 
L 421.846472 410.279707 
z
" clip-path="url(#p088ea37bf1)" style="fill: #3c3c3c; stroke: #3c3c3c; stroke-width: 0.15; stroke-linecap: round"/>
   </g>
   <g id="patch_79">
    <path d="M 348.799741 383.560392 
Q 348.838674 398.043348 348.877156 412.358601 
" clip-path="url(#p088ea37bf1)" style="fill: none; stroke: #3c3c3c; stroke-width: 0.15; stroke-linecap: round"/>
    <path d="M 350.866396 408.353239 
L 348.877156 412.358601 
L 346.86641 408.363991 
L 350.866396 408.353239 
z
" clip-path="url(#p088ea37bf1)" style="fill: #3c3c3c; stroke: #3c3c3c; stroke-width: 0.15; stroke-linecap: round"/>
   </g>
   <g id="patch_80">
    <path d="M 356.27555 379.23426 
Q 388.837559 398.043427 420.576662 416.37725 
" clip-path="url(#p088ea37bf1)" style="fill: none; stroke: #3c3c3c; stroke-width: 0.85; stroke-linecap: round"/>
    <path d="M 418.113376 412.644661 
L 420.576662 416.37725 
L 416.112619 416.108326 
L 418.113376 412.644661 
z
" clip-path="url(#p088ea37bf1)" style="fill: #3c3c3c; stroke: #3c3c3c; stroke-width: 0.85; stroke-linecap: round"/>
   </g>
   <g id="patch_81">
    <path d="M 425.261781 459.491203 
Q 340.191477 259.198496 255.558246 59.93485 
" clip-path="url(#p088ea37bf1)" style="fill: none; stroke: #3c3c3c; stroke-linecap: round"/>
    <path d="M 255.281125 64.398392 
L 255.558246 59.93485 
L 258.962807 62.834672 
L 255.281125 64.398392 
z
" clip-path="url(#p088ea37bf1)" style="fill: #3c3c3c; stroke: #3c3c3c; stroke-linecap: round"/>
   </g>
   <g id="patch_82">
    <path d="M 463.483084 459.777211 
Q 359.600633 259.200806 256.232363 59.617183 
" clip-path="url(#p088ea37bf1)" style="fill: none; stroke: #3c3c3c; stroke-linecap: round"/>
    <path d="M 256.296011 64.088866 
L 256.232363 59.617183 
L 259.847898 62.249274 
L 256.296011 64.088866 
z
" clip-path="url(#p088ea37bf1)" style="fill: #3c3c3c; stroke: #3c3c3c; stroke-linecap: round"/>
   </g>
   <g id="matplotlib.axis_1">
    <g id="xtick_1"/>
    <g id="xtick_2"/>
    <g id="xtick_3"/>
    <g id="xtick_4"/>
    <g id="xtick_5"/>
    <g id="xtick_6"/>
    <g id="xtick_7"/>
    <g id="xtick_8"/>
   </g>
   <g id="matplotlib.axis_2">
    <g id="ytick_1"/>
    <g id="ytick_2"/>
    <g id="ytick_3"/>
    <g id="ytick_4"/>
    <g id="ytick_5"/>
    <g id="ytick_6"/>
    <g id="ytick_7"/>
    <g id="ytick_8"/>
   </g>
   <g id="line2d_1">
    <path d="M 251.735968 50.935537 
" clip-path="url(#p088ea37bf1)" style="fill: none; stroke: #a3a3a3; stroke-width: 1.5; stroke-linecap: square"/>
   </g>
   <g id="line2d_2">
    <path d="M 251.735968 50.935537 
" clip-path="url(#p088ea37bf1)" style="fill: none; stroke: #001c7f; stroke-width: 1.5; stroke-linecap: square"/>
    <defs>
     <path id="me56e783cbc" d="M -3 3 
L 3 3 
L 3 -3 
L -3 -3 
z
" style="stroke: #001c7f; stroke-linejoin: miter"/>
    </defs>
    <g clip-path="url(#p088ea37bf1)">
     <use xlink:href="#me56e783cbc" x="251.735968" y="50.935537" style="fill: #001c7f; stroke: #001c7f; stroke-linejoin: miter"/>
    </g>
   </g>
   <g id="line2d_3">
    <path d="M 251.735968 50.935537 
" clip-path="url(#p088ea37bf1)" style="fill: none; stroke: #12711c; stroke-width: 1.5; stroke-linecap: square"/>
    <defs>
     <path id="mdca3ba0a5c" d="M -3 3 
L 3 3 
L 3 -3 
L -3 -3 
z
" style="stroke: #12711c; stroke-linejoin: miter"/>
    </defs>
    <g clip-path="url(#p088ea37bf1)">
     <use xlink:href="#mdca3ba0a5c" x="251.735968" y="50.935537" style="fill: #12711c; stroke: #12711c; stroke-linejoin: miter"/>
    </g>
   </g>
   <g id="PathCollection_4">
    <defs>
     <path id="C0_0_78c23651c8" d="M 0 8.660254 
C 2.296726 8.660254 4.499694 7.747755 6.123724 6.123724 
C 7.747755 4.499694 8.660254 2.296726 8.660254 -0 
C 8.660254 -2.296726 7.747755 -4.499694 6.123724 -6.123724 
C 4.499694 -7.747755 2.296726 -8.660254 0 -8.660254 
C -2.296726 -8.660254 -4.499694 -7.747755 -6.123724 -6.123724 
C -7.747755 -4.499694 -8.660254 -2.296726 -8.660254 0 
C -8.660254 2.296726 -7.747755 4.499694 -6.123724 6.123724 
C -4.499694 7.747755 -2.296726 8.660254 0 8.660254 
z
"/>
    </defs>
    <g clip-path="url(#p088ea37bf1)">
     <use xlink:href="#C0_0_78c23651c8" x="251.735968" y="50.935537" style="fill: #9f4800; stroke: #000000"/>
    </g>
    <g clip-path="url(#p088ea37bf1)">
     <use xlink:href="#C0_0_78c23651c8" x="232.327868" y="143.497521" style="fill: #ffc400; stroke: #000000"/>
    </g>
    <g clip-path="url(#p088ea37bf1)">
     <use xlink:href="#C0_0_78c23651c8" x="271.144068" y="143.497521" style="fill: #ffc400; stroke: #000000"/>
    </g>
    <g clip-path="url(#p088ea37bf1)">
     <use xlink:href="#C0_0_78c23651c8" x="251.735968" y="236.059504" style="fill: #ffc400; stroke: #000000"/>
    </g>
    <g clip-path="url(#p088ea37bf1)">
     <use xlink:href="#C0_0_78c23651c8" x="193.511669" y="236.059504" style="fill: #ffc400; stroke: #000000"/>
    </g>
    <g clip-path="url(#p088ea37bf1)">
     <use xlink:href="#C0_0_78c23651c8" x="212.919769" y="328.621488" style="fill: #ffc400; stroke: #000000"/>
    </g>
    <g clip-path="url(#p088ea37bf1)">
     <use xlink:href="#C0_0_78c23651c8" x="290.552168" y="328.621488" style="fill: #ffc400; stroke: #000000"/>
    </g>
    <g clip-path="url(#p088ea37bf1)">
     <use xlink:href="#C0_0_78c23651c8" x="251.735968" y="421.183471" style="fill: #ffc400; stroke: #000000"/>
    </g>
    <g clip-path="url(#p088ea37bf1)">
     <use xlink:href="#C0_0_78c23651c8" x="161.040425" y="421.183471" style="fill: #ffc400; stroke: #000000"/>
    </g>
    <g clip-path="url(#p088ea37bf1)">
     <use xlink:href="#C0_0_78c23651c8" x="348.900878" y="421.183471" style="fill: #ffc400; stroke: #000000"/>
    </g>
    <g clip-path="url(#p088ea37bf1)">
     <use xlink:href="#C0_0_78c23651c8" x="154.694225" y="328.621488" style="fill: #ffc400; stroke: #000000"/>
    </g>
    <g clip-path="url(#p088ea37bf1)">
     <use xlink:href="#C0_0_78c23651c8" x="99.455787" y="421.183471" style="fill: #ffc400; stroke: #000000"/>
    </g>
    <g clip-path="url(#p088ea37bf1)">
     <use xlink:href="#C0_0_78c23651c8" x="309.960268" y="236.059504" style="fill: #ffc400; stroke: #000000"/>
    </g>
    <g clip-path="url(#p088ea37bf1)">
     <use xlink:href="#C0_0_78c23651c8" x="348.776468" y="328.621488" style="fill: #ffc400; stroke: #000000"/>
    </g>
    <g clip-path="url(#p088ea37bf1)">
     <use xlink:href="#C0_0_78c23651c8" x="428.897085" y="421.183471" style="fill: #1ac938; stroke: #000000"/>
    </g>
   </g>
   <g id="PathCollection_5">
    <defs>
     <path id="mb6c02a86d5" d="M -6.123724 6.123724 
L 6.123724 6.123724 
L 6.123724 -6.123724 
L -6.123724 -6.123724 
z
" style="stroke: #000000"/>
    </defs>
    <g clip-path="url(#p088ea37bf1)">
     <use xlink:href="#mb6c02a86d5" x="232.327868" y="97.216529" style="fill: #001c7f; stroke: #000000"/>
     <use xlink:href="#mb6c02a86d5" x="232.327868" y="189.778512" style="fill: #001c7f; stroke: #000000"/>
     <use xlink:href="#mb6c02a86d5" x="271.144068" y="189.778512" style="fill: #001c7f; stroke: #000000"/>
     <use xlink:href="#mb6c02a86d5" x="271.144068" y="282.340496" style="fill: #001c7f; stroke: #000000"/>
     <use xlink:href="#mb6c02a86d5" x="193.511669" y="282.340496" style="fill: #001c7f; stroke: #000000"/>
     <use xlink:href="#mb6c02a86d5" x="232.327868" y="374.902479" style="fill: #001c7f; stroke: #000000"/>
     <use xlink:href="#mb6c02a86d5" x="309.960268" y="374.902479" style="fill: #001c7f; stroke: #000000"/>
     <use xlink:href="#mb6c02a86d5" x="228.968774" y="467.464463" style="fill: #001c7f; stroke: #000000"/>
     <use xlink:href="#mb6c02a86d5" x="128.567937" y="467.464463" style="fill: #001c7f; stroke: #000000"/>
     <use xlink:href="#mb6c02a86d5" x="349.522933" y="467.464463" style="fill: #001c7f; stroke: #000000"/>
     <use xlink:href="#mb6c02a86d5" x="115.878025" y="374.902479" style="fill: #001c7f; stroke: #000000"/>
     <use xlink:href="#mb6c02a86d5" x="50.935537" y="467.464463" style="fill: #001c7f; stroke: #000000"/>
     <use xlink:href="#mb6c02a86d5" x="309.960268" y="282.340496" style="fill: #001c7f; stroke: #000000"/>
     <use xlink:href="#mb6c02a86d5" x="387.592667" y="374.902479" style="fill: #001c7f; stroke: #000000"/>
     <use xlink:href="#mb6c02a86d5" x="428.648263" y="467.464463" style="fill: #001c7f; stroke: #000000"/>
    </g>
   </g>
   <g id="PathCollection_6">
    <defs>
     <path id="m8a1512c408" d="M -6.123724 6.123724 
L 6.123724 6.123724 
L 6.123724 -6.123724 
L -6.123724 -6.123724 
z
" style="stroke: #000000"/>
    </defs>
    <g clip-path="url(#p088ea37bf1)">
     <use xlink:href="#m8a1512c408" x="271.144068" y="97.216529" style="fill: #12711c; stroke: #000000"/>
     <use xlink:href="#m8a1512c408" x="193.511669" y="189.778512" style="fill: #12711c; stroke: #000000"/>
     <use xlink:href="#m8a1512c408" x="309.960268" y="189.778512" style="fill: #12711c; stroke: #000000"/>
     <use xlink:href="#m8a1512c408" x="232.327868" y="282.340496" style="fill: #12711c; stroke: #000000"/>
     <use xlink:href="#m8a1512c408" x="154.694225" y="282.340496" style="fill: #12711c; stroke: #000000"/>
     <use xlink:href="#m8a1512c408" x="193.511669" y="374.902479" style="fill: #12711c; stroke: #000000"/>
     <use xlink:href="#m8a1512c408" x="271.144068" y="374.902479" style="fill: #12711c; stroke: #000000"/>
     <use xlink:href="#m8a1512c408" x="310.706733" y="467.464463" style="fill: #12711c; stroke: #000000"/>
     <use xlink:href="#m8a1512c408" x="167.38538" y="467.464463" style="fill: #12711c; stroke: #000000"/>
     <use xlink:href="#m8a1512c408" x="388.587954" y="467.464463" style="fill: #12711c; stroke: #000000"/>
     <use xlink:href="#m8a1512c408" x="154.694225" y="374.902479" style="fill: #12711c; stroke: #000000"/>
     <use xlink:href="#m8a1512c408" x="89.751737" y="467.464463" style="fill: #12711c; stroke: #000000"/>
     <use xlink:href="#m8a1512c408" x="348.776468" y="282.340496" style="fill: #12711c; stroke: #000000"/>
     <use xlink:href="#m8a1512c408" x="348.776468" y="374.902479" style="fill: #12711c; stroke: #000000"/>
     <use xlink:href="#m8a1512c408" x="467.464463" y="467.464463" style="fill: #12711c; stroke: #000000"/>
    </g>
   </g>
   <g id="text_1">
    <g clip-path="url(#p088ea37bf1)">
     <!-- 161 -->
     <g style="fill: #1a1a1a" transform="translate(240.283468 55.4946)scale(0.12 -0.12)">
      <defs>
       <path id="DejaVuSans-31" d="M 794 531 
L 1825 531 
L 1825 4091 
L 703 3866 
L 703 4441 
L 1819 4666 
L 2450 4666 
L 2450 531 
L 3481 531 
L 3481 0 
L 794 0 
L 794 531 
z
" transform="scale(0.015625)"/>
       <path id="DejaVuSans-36" d="M 2113 2584 
Q 1688 2584 1439 2293 
Q 1191 2003 1191 1497 
Q 1191 994 1439 701 
Q 1688 409 2113 409 
Q 2538 409 2786 701 
Q 3034 994 3034 1497 
Q 3034 2003 2786 2293 
Q 2538 2584 2113 2584 
z
M 3366 4563 
L 3366 3988 
Q 3128 4100 2886 4159 
Q 2644 4219 2406 4219 
Q 1781 4219 1451 3797 
Q 1122 3375 1075 2522 
Q 1259 2794 1537 2939 
Q 1816 3084 2150 3084 
Q 2853 3084 3261 2657 
Q 3669 2231 3669 1497 
Q 3669 778 3244 343 
Q 2819 -91 2113 -91 
Q 1303 -91 875 529 
Q 447 1150 447 2328 
Q 447 3434 972 4092 
Q 1497 4750 2381 4750 
Q 2619 4750 2861 4703 
Q 3103 4656 3366 4563 
z
" transform="scale(0.015625)"/>
      </defs>
      <use xlink:href="#DejaVuSans-31"/>
      <use xlink:href="#DejaVuSans-36" x="63.623047"/>
      <use xlink:href="#DejaVuSans-31" x="127.246094"/>
     </g>
    </g>
   </g>
   <g id="text_2">
    <g clip-path="url(#p088ea37bf1)">
     <!-- 81 -->
     <g style="fill: #1a1a1a" transform="translate(224.692868 148.056583)scale(0.12 -0.12)">
      <defs>
       <path id="DejaVuSans-38" d="M 2034 2216 
Q 1584 2216 1326 1975 
Q 1069 1734 1069 1313 
Q 1069 891 1326 650 
Q 1584 409 2034 409 
Q 2484 409 2743 651 
Q 3003 894 3003 1313 
Q 3003 1734 2745 1975 
Q 2488 2216 2034 2216 
z
M 1403 2484 
Q 997 2584 770 2862 
Q 544 3141 544 3541 
Q 544 4100 942 4425 
Q 1341 4750 2034 4750 
Q 2731 4750 3128 4425 
Q 3525 4100 3525 3541 
Q 3525 3141 3298 2862 
Q 3072 2584 2669 2484 
Q 3125 2378 3379 2068 
Q 3634 1759 3634 1313 
Q 3634 634 3220 271 
Q 2806 -91 2034 -91 
Q 1263 -91 848 271 
Q 434 634 434 1313 
Q 434 1759 690 2068 
Q 947 2378 1403 2484 
z
M 1172 3481 
Q 1172 3119 1398 2916 
Q 1625 2713 2034 2713 
Q 2441 2713 2670 2916 
Q 2900 3119 2900 3481 
Q 2900 3844 2670 4047 
Q 2441 4250 2034 4250 
Q 1625 4250 1398 4047 
Q 1172 3844 1172 3481 
z
" transform="scale(0.015625)"/>
      </defs>
      <use xlink:href="#DejaVuSans-38"/>
      <use xlink:href="#DejaVuSans-31" x="63.623047"/>
     </g>
    </g>
   </g>
   <g id="text_3">
    <g clip-path="url(#p088ea37bf1)">
     <!-- 79 -->
     <g style="fill: #1a1a1a" transform="translate(263.509068 148.056583)scale(0.12 -0.12)">
      <defs>
       <path id="DejaVuSans-37" d="M 525 4666 
L 3525 4666 
L 3525 4397 
L 1831 0 
L 1172 0 
L 2766 4134 
L 525 4134 
L 525 4666 
z
" transform="scale(0.015625)"/>
       <path id="DejaVuSans-39" d="M 703 97 
L 703 672 
Q 941 559 1184 500 
Q 1428 441 1663 441 
Q 2288 441 2617 861 
Q 2947 1281 2994 2138 
Q 2813 1869 2534 1725 
Q 2256 1581 1919 1581 
Q 1219 1581 811 2004 
Q 403 2428 403 3163 
Q 403 3881 828 4315 
Q 1253 4750 1959 4750 
Q 2769 4750 3195 4129 
Q 3622 3509 3622 2328 
Q 3622 1225 3098 567 
Q 2575 -91 1691 -91 
Q 1453 -91 1209 -44 
Q 966 3 703 97 
z
M 1959 2075 
Q 2384 2075 2632 2365 
Q 2881 2656 2881 3163 
Q 2881 3666 2632 3958 
Q 2384 4250 1959 4250 
Q 1534 4250 1286 3958 
Q 1038 3666 1038 3163 
Q 1038 2656 1286 2365 
Q 1534 2075 1959 2075 
z
" transform="scale(0.015625)"/>
      </defs>
      <use xlink:href="#DejaVuSans-37"/>
      <use xlink:href="#DejaVuSans-39" x="63.623047"/>
     </g>
    </g>
   </g>
   <g id="text_4">
    <g clip-path="url(#p088ea37bf1)">
     <!-- 70 -->
     <g style="fill: #1a1a1a" transform="translate(244.100968 240.618567)scale(0.12 -0.12)">
      <defs>
       <path id="DejaVuSans-30" d="M 2034 4250 
Q 1547 4250 1301 3770 
Q 1056 3291 1056 2328 
Q 1056 1369 1301 889 
Q 1547 409 2034 409 
Q 2525 409 2770 889 
Q 3016 1369 3016 2328 
Q 3016 3291 2770 3770 
Q 2525 4250 2034 4250 
z
M 2034 4750 
Q 2819 4750 3233 4129 
Q 3647 3509 3647 2328 
Q 3647 1150 3233 529 
Q 2819 -91 2034 -91 
Q 1250 -91 836 529 
Q 422 1150 422 2328 
Q 422 3509 836 4129 
Q 1250 4750 2034 4750 
z
" transform="scale(0.015625)"/>
      </defs>
      <use xlink:href="#DejaVuSans-37"/>
      <use xlink:href="#DejaVuSans-30" x="63.623047"/>
     </g>
    </g>
   </g>
   <g id="text_5">
    <g clip-path="url(#p088ea37bf1)">
     <!-- 46 -->
     <g style="fill: #1a1a1a" transform="translate(185.876669 240.618567)scale(0.12 -0.12)">
      <defs>
       <path id="DejaVuSans-34" d="M 2419 4116 
L 825 1625 
L 2419 1625 
L 2419 4116 
z
M 2253 4666 
L 3047 4666 
L 3047 1625 
L 3713 1625 
L 3713 1100 
L 3047 1100 
L 3047 0 
L 2419 0 
L 2419 1100 
L 313 1100 
L 313 1709 
L 2253 4666 
z
" transform="scale(0.015625)"/>
      </defs>
      <use xlink:href="#DejaVuSans-34"/>
      <use xlink:href="#DejaVuSans-36" x="63.623047"/>
     </g>
    </g>
   </g>
   <g id="text_6">
    <g clip-path="url(#p088ea37bf1)">
     <!-- 63 -->
     <g style="fill: #1a1a1a" transform="translate(205.284769 333.18055)scale(0.12 -0.12)">
      <defs>
       <path id="DejaVuSans-33" d="M 2597 2516 
Q 3050 2419 3304 2112 
Q 3559 1806 3559 1356 
Q 3559 666 3084 287 
Q 2609 -91 1734 -91 
Q 1441 -91 1130 -33 
Q 819 25 488 141 
L 488 750 
Q 750 597 1062 519 
Q 1375 441 1716 441 
Q 2309 441 2620 675 
Q 2931 909 2931 1356 
Q 2931 1769 2642 2001 
Q 2353 2234 1838 2234 
L 1294 2234 
L 1294 2753 
L 1863 2753 
Q 2328 2753 2575 2939 
Q 2822 3125 2822 3475 
Q 2822 3834 2567 4026 
Q 2313 4219 1838 4219 
Q 1578 4219 1281 4162 
Q 984 4106 628 3988 
L 628 4550 
Q 988 4650 1302 4700 
Q 1616 4750 1894 4750 
Q 2613 4750 3031 4423 
Q 3450 4097 3450 3541 
Q 3450 3153 3228 2886 
Q 3006 2619 2597 2516 
z
" transform="scale(0.015625)"/>
      </defs>
      <use xlink:href="#DejaVuSans-36"/>
      <use xlink:href="#DejaVuSans-33" x="63.623047"/>
     </g>
    </g>
   </g>
   <g id="text_7">
    <g clip-path="url(#p088ea37bf1)">
     <!-- 59 -->
     <g style="fill: #1a1a1a" transform="translate(282.917168 333.18055)scale(0.12 -0.12)">
      <defs>
       <path id="DejaVuSans-35" d="M 691 4666 
L 3169 4666 
L 3169 4134 
L 1269 4134 
L 1269 2991 
Q 1406 3038 1543 3061 
Q 1681 3084 1819 3084 
Q 2600 3084 3056 2656 
Q 3513 2228 3513 1497 
Q 3513 744 3044 326 
Q 2575 -91 1722 -91 
Q 1428 -91 1123 -41 
Q 819 9 494 109 
L 494 744 
Q 775 591 1075 516 
Q 1375 441 1709 441 
Q 2250 441 2565 725 
Q 2881 1009 2881 1497 
Q 2881 1984 2565 2268 
Q 2250 2553 1709 2553 
Q 1456 2553 1204 2497 
Q 953 2441 691 2322 
L 691 4666 
z
" transform="scale(0.015625)"/>
      </defs>
      <use xlink:href="#DejaVuSans-35"/>
      <use xlink:href="#DejaVuSans-39" x="63.623047"/>
     </g>
    </g>
   </g>
   <g id="text_8">
    <g clip-path="url(#p088ea37bf1)">
     <!-- 60 -->
     <g style="fill: #1a1a1a" transform="translate(244.100968 425.742534)scale(0.12 -0.12)">
      <use xlink:href="#DejaVuSans-36"/>
      <use xlink:href="#DejaVuSans-30" x="63.623047"/>
     </g>
    </g>
   </g>
   <g id="text_9">
    <g clip-path="url(#p088ea37bf1)">
     <!-- 39 -->
     <g style="fill: #1a1a1a" transform="translate(153.405425 425.742534)scale(0.12 -0.12)">
      <use xlink:href="#DejaVuSans-33"/>
      <use xlink:href="#DejaVuSans-39" x="63.623047"/>
     </g>
    </g>
   </g>
   <g id="text_10">
    <g clip-path="url(#p088ea37bf1)">
     <!-- 36 -->
     <g style="fill: #1a1a1a" transform="translate(341.265878 425.742534)scale(0.12 -0.12)">
      <use xlink:href="#DejaVuSans-33"/>
      <use xlink:href="#DejaVuSans-36" x="63.623047"/>
     </g>
    </g>
   </g>
   <g id="text_11">
    <g clip-path="url(#p088ea37bf1)">
     <!-- 19 -->
     <g style="fill: #1a1a1a" transform="translate(147.059225 333.18055)scale(0.12 -0.12)">
      <use xlink:href="#DejaVuSans-31"/>
      <use xlink:href="#DejaVuSans-39" x="63.623047"/>
     </g>
    </g>
   </g>
   <g id="text_12">
    <g clip-path="url(#p088ea37bf1)">
     <!-- 13 -->
     <g style="fill: #1a1a1a" transform="translate(91.820787 425.742534)scale(0.12 -0.12)">
      <use xlink:href="#DejaVuSans-31"/>
      <use xlink:href="#DejaVuSans-33" x="63.623047"/>
     </g>
    </g>
   </g>
   <g id="text_13">
    <g clip-path="url(#p088ea37bf1)">
     <!-- 44 -->
     <g style="fill: #1a1a1a" transform="translate(302.325268 240.618567)scale(0.12 -0.12)">
      <use xlink:href="#DejaVuSans-34"/>
      <use xlink:href="#DejaVuSans-34" x="63.623047"/>
     </g>
    </g>
   </g>
   <g id="text_14">
    <g clip-path="url(#p088ea37bf1)">
     <!-- 19 -->
     <g style="fill: #1a1a1a" transform="translate(341.141468 333.18055)scale(0.12 -0.12)">
      <use xlink:href="#DejaVuSans-31"/>
      <use xlink:href="#DejaVuSans-39" x="63.623047"/>
     </g>
    </g>
   </g>
   <g id="text_15">
    <g clip-path="url(#p088ea37bf1)">
     <!-- 12 -->
     <g style="fill: #1a1a1a" transform="translate(421.262085 425.742534)scale(0.12 -0.12)">
      <defs>
       <path id="DejaVuSans-32" d="M 1228 531 
L 3431 531 
L 3431 0 
L 469 0 
L 469 531 
Q 828 903 1448 1529 
Q 2069 2156 2228 2338 
Q 2531 2678 2651 2914 
Q 2772 3150 2772 3378 
Q 2772 3750 2511 3984 
Q 2250 4219 1831 4219 
Q 1534 4219 1204 4116 
Q 875 4013 500 3803 
L 500 4441 
Q 881 4594 1212 4672 
Q 1544 4750 1819 4750 
Q 2544 4750 2975 4387 
Q 3406 4025 3406 3419 
Q 3406 3131 3298 2873 
Q 3191 2616 2906 2266 
Q 2828 2175 2409 1742 
Q 1991 1309 1228 531 
z
" transform="scale(0.015625)"/>
      </defs>
      <use xlink:href="#DejaVuSans-31"/>
      <use xlink:href="#DejaVuSans-32" x="63.623047"/>
     </g>
    </g>
   </g>
   <g id="text_16">
    <g clip-path="url(#p088ea37bf1)">
     <!-- 94 -->
     <g style="fill: #ffffff" transform="translate(224.692868 101.775591)scale(0.12 -0.12)">
      <use xlink:href="#DejaVuSans-39"/>
      <use xlink:href="#DejaVuSans-34" x="63.623047"/>
     </g>
    </g>
   </g>
   <g id="text_17">
    <g clip-path="url(#p088ea37bf1)">
     <!-- 66 -->
     <g style="fill: #ffffff" transform="translate(263.509068 101.775591)scale(0.12 -0.12)">
      <use xlink:href="#DejaVuSans-36"/>
      <use xlink:href="#DejaVuSans-36" x="63.623047"/>
     </g>
    </g>
   </g>
   <g id="text_18">
    <g clip-path="url(#p088ea37bf1)">
     <!-- 66 -->
     <g style="fill: #ffffff" transform="translate(224.692868 194.337575)scale(0.12 -0.12)">
      <use xlink:href="#DejaVuSans-36"/>
      <use xlink:href="#DejaVuSans-36" x="63.623047"/>
     </g>
    </g>
   </g>
   <g id="text_19">
    <g clip-path="url(#p088ea37bf1)">
     <!-- 15 -->
     <g style="fill: #ffffff" transform="translate(185.876669 194.337575)scale(0.12 -0.12)">
      <use xlink:href="#DejaVuSans-31"/>
      <use xlink:href="#DejaVuSans-35" x="63.623047"/>
     </g>
    </g>
   </g>
   <g id="text_20">
    <g clip-path="url(#p088ea37bf1)">
     <!-- 7 -->
     <g style="fill: #ffffff" transform="translate(267.326568 194.337575)scale(0.12 -0.12)">
      <use xlink:href="#DejaVuSans-37"/>
     </g>
    </g>
   </g>
   <g id="text_21">
    <g clip-path="url(#p088ea37bf1)">
     <!-- 72 -->
     <g style="fill: #ffffff" transform="translate(302.325268 194.337575)scale(0.12 -0.12)">
      <use xlink:href="#DejaVuSans-37"/>
      <use xlink:href="#DejaVuSans-32" x="63.623047"/>
     </g>
    </g>
   </g>
   <g id="text_22">
    <g clip-path="url(#p088ea37bf1)">
     <!-- 27 -->
     <g style="fill: #ffffff" transform="translate(263.509068 286.899558)scale(0.12 -0.12)">
      <use xlink:href="#DejaVuSans-32"/>
      <use xlink:href="#DejaVuSans-37" x="63.623047"/>
     </g>
    </g>
   </g>
   <g id="text_23">
    <g clip-path="url(#p088ea37bf1)">
     <!-- 43 -->
     <g style="fill: #ffffff" transform="translate(224.692868 286.899558)scale(0.12 -0.12)">
      <use xlink:href="#DejaVuSans-34"/>
      <use xlink:href="#DejaVuSans-33" x="63.623047"/>
     </g>
    </g>
   </g>
   <g id="text_24">
    <g clip-path="url(#p088ea37bf1)">
     <!-- 38 -->
     <g style="fill: #ffffff" transform="translate(185.876669 286.899558)scale(0.12 -0.12)">
      <use xlink:href="#DejaVuSans-33"/>
      <use xlink:href="#DejaVuSans-38" x="63.623047"/>
     </g>
    </g>
   </g>
   <g id="text_25">
    <g clip-path="url(#p088ea37bf1)">
     <!-- 8 -->
     <g style="fill: #ffffff" transform="translate(150.876725 286.899558)scale(0.12 -0.12)">
      <use xlink:href="#DejaVuSans-38"/>
     </g>
    </g>
   </g>
   <g id="text_26">
    <g clip-path="url(#p088ea37bf1)">
     <!-- 55 -->
     <g style="fill: #ffffff" transform="translate(224.692868 379.461542)scale(0.12 -0.12)">
      <use xlink:href="#DejaVuSans-35"/>
      <use xlink:href="#DejaVuSans-35" x="63.623047"/>
     </g>
    </g>
   </g>
   <g id="text_27">
    <g clip-path="url(#p088ea37bf1)">
     <!-- 8 -->
     <g style="fill: #ffffff" transform="translate(189.694169 379.461542)scale(0.12 -0.12)">
      <use xlink:href="#DejaVuSans-38"/>
     </g>
    </g>
   </g>
   <g id="text_28">
    <g clip-path="url(#p088ea37bf1)">
     <!-- 23 -->
     <g style="fill: #ffffff" transform="translate(302.325268 379.461542)scale(0.12 -0.12)">
      <use xlink:href="#DejaVuSans-32"/>
      <use xlink:href="#DejaVuSans-33" x="63.623047"/>
     </g>
    </g>
   </g>
   <g id="text_29">
    <g clip-path="url(#p088ea37bf1)">
     <!-- 36 -->
     <g style="fill: #ffffff" transform="translate(263.509068 379.461542)scale(0.12 -0.12)">
      <use xlink:href="#DejaVuSans-33"/>
      <use xlink:href="#DejaVuSans-36" x="63.623047"/>
     </g>
    </g>
   </g>
   <g id="text_30">
    <g clip-path="url(#p088ea37bf1)">
     <!-- 51 -->
     <g style="fill: #ffffff" transform="translate(221.333774 472.023525)scale(0.12 -0.12)">
      <use xlink:href="#DejaVuSans-35"/>
      <use xlink:href="#DejaVuSans-31" x="63.623047"/>
     </g>
    </g>
   </g>
   <g id="text_31">
    <g clip-path="url(#p088ea37bf1)">
     <!-- 9 -->
     <g style="fill: #ffffff" transform="translate(306.889233 472.023525)scale(0.12 -0.12)">
      <use xlink:href="#DejaVuSans-39"/>
     </g>
    </g>
   </g>
   <g id="text_32">
    <g clip-path="url(#p088ea37bf1)">
     <!-- 8 -->
     <g style="fill: #ffffff" transform="translate(124.750437 472.023525)scale(0.12 -0.12)">
      <use xlink:href="#DejaVuSans-38"/>
     </g>
    </g>
   </g>
   <g id="text_33">
    <g clip-path="url(#p088ea37bf1)">
     <!-- 31 -->
     <g style="fill: #ffffff" transform="translate(159.75038 472.023525)scale(0.12 -0.12)">
      <use xlink:href="#DejaVuSans-33"/>
      <use xlink:href="#DejaVuSans-31" x="63.623047"/>
     </g>
    </g>
   </g>
   <g id="text_34">
    <g clip-path="url(#p088ea37bf1)">
     <!-- 11 -->
     <g style="fill: #ffffff" transform="translate(341.887933 472.023525)scale(0.12 -0.12)">
      <use xlink:href="#DejaVuSans-31"/>
      <use xlink:href="#DejaVuSans-31" x="63.623047"/>
     </g>
    </g>
   </g>
   <g id="text_35">
    <g clip-path="url(#p088ea37bf1)">
     <!-- 25 -->
     <g style="fill: #ffffff" transform="translate(380.952954 472.023525)scale(0.12 -0.12)">
      <use xlink:href="#DejaVuSans-32"/>
      <use xlink:href="#DejaVuSans-35" x="63.623047"/>
     </g>
    </g>
   </g>
   <g id="text_36">
    <g clip-path="url(#p088ea37bf1)">
     <!-- 1 -->
     <g style="fill: #ffffff" transform="translate(112.060525 379.461542)scale(0.12 -0.12)">
      <use xlink:href="#DejaVuSans-31"/>
     </g>
    </g>
   </g>
   <g id="text_37">
    <g clip-path="url(#p088ea37bf1)">
     <!-- 18 -->
     <g style="fill: #ffffff" transform="translate(147.059225 379.461542)scale(0.12 -0.12)">
      <use xlink:href="#DejaVuSans-31"/>
      <use xlink:href="#DejaVuSans-38" x="63.623047"/>
     </g>
    </g>
   </g>
   <g id="text_38">
    <g clip-path="url(#p088ea37bf1)">
     <!-- 2 -->
     <g style="fill: #ffffff" transform="translate(47.118037 472.023525)scale(0.12 -0.12)">
      <use xlink:href="#DejaVuSans-32"/>
     </g>
    </g>
   </g>
   <g id="text_39">
    <g clip-path="url(#p088ea37bf1)">
     <!-- 11 -->
     <g style="fill: #ffffff" transform="translate(82.116737 472.023525)scale(0.12 -0.12)">
      <use xlink:href="#DejaVuSans-31"/>
      <use xlink:href="#DejaVuSans-31" x="63.623047"/>
     </g>
    </g>
   </g>
   <g id="text_40">
    <g clip-path="url(#p088ea37bf1)">
     <!-- 4 -->
     <g style="fill: #ffffff" transform="translate(306.142768 286.899558)scale(0.12 -0.12)">
      <use xlink:href="#DejaVuSans-34"/>
     </g>
    </g>
   </g>
   <g id="text_41">
    <g clip-path="url(#p088ea37bf1)">
     <!-- 40 -->
     <g style="fill: #ffffff" transform="translate(341.141468 286.899558)scale(0.12 -0.12)">
      <use xlink:href="#DejaVuSans-34"/>
      <use xlink:href="#DejaVuSans-30" x="63.623047"/>
     </g>
    </g>
   </g>
   <g id="text_42">
    <g clip-path="url(#p088ea37bf1)">
     <!-- 2 -->
     <g style="fill: #ffffff" transform="translate(383.775167 379.461542)scale(0.12 -0.12)">
      <use xlink:href="#DejaVuSans-32"/>
     </g>
    </g>
   </g>
   <g id="text_43">
    <g clip-path="url(#p088ea37bf1)">
     <!-- 17 -->
     <g style="fill: #ffffff" transform="translate(341.141468 379.461542)scale(0.12 -0.12)">
      <use xlink:href="#DejaVuSans-31"/>
      <use xlink:href="#DejaVuSans-37" x="63.623047"/>
     </g>
    </g>
   </g>
   <g id="text_44">
    <g clip-path="url(#p088ea37bf1)">
     <!-- 4 -->
     <g style="fill: #ffffff" transform="translate(424.830763 472.023525)scale(0.12 -0.12)">
      <use xlink:href="#DejaVuSans-34"/>
     </g>
    </g>
   </g>
   <g id="text_45">
    <g clip-path="url(#p088ea37bf1)">
     <!-- 8 -->
     <g style="fill: #ffffff" transform="translate(463.646963 472.023525)scale(0.12 -0.12)">
      <use xlink:href="#DejaVuSans-38"/>
     </g>
    </g>
   </g>
   <g id="legend_1">
    <g id="patch_83">
     <path d="M 328.245 122.4825 
L 502.8 122.4825 
Q 505.2 122.4825 505.2 120.0825 
L 505.2 15.6 
Q 505.2 13.2 502.8 13.2 
L 328.245 13.2 
Q 325.845 13.2 325.845 15.6 
L 325.845 120.0825 
Q 325.845 122.4825 328.245 122.4825 
z
" style="fill: #ffffff; opacity: 0.8; stroke: #cccccc; stroke-linejoin: miter"/>
    </g>
    <g id="PathCollection_7">
     <g>
      <use xlink:href="#m02dd3e4001" x="342.645" y="23.968125" style="fill: #1ac938; stroke: #1ac938"/>
     </g>
    </g>
    <g id="text_46">
     <!-- Highly rewarding state -->
     <g transform="translate(364.245 27.118125)scale(0.12 -0.12)">
      <defs>
       <path id="DejaVuSans-48" d="M 628 4666 
L 1259 4666 
L 1259 2753 
L 3553 2753 
L 3553 4666 
L 4184 4666 
L 4184 0 
L 3553 0 
L 3553 2222 
L 1259 2222 
L 1259 0 
L 628 0 
L 628 4666 
z
" transform="scale(0.015625)"/>
       <path id="DejaVuSans-69" d="M 603 3500 
L 1178 3500 
L 1178 0 
L 603 0 
L 603 3500 
z
M 603 4863 
L 1178 4863 
L 1178 4134 
L 603 4134 
L 603 4863 
z
" transform="scale(0.015625)"/>
       <path id="DejaVuSans-67" d="M 2906 1791 
Q 2906 2416 2648 2759 
Q 2391 3103 1925 3103 
Q 1463 3103 1205 2759 
Q 947 2416 947 1791 
Q 947 1169 1205 825 
Q 1463 481 1925 481 
Q 2391 481 2648 825 
Q 2906 1169 2906 1791 
z
M 3481 434 
Q 3481 -459 3084 -895 
Q 2688 -1331 1869 -1331 
Q 1566 -1331 1297 -1286 
Q 1028 -1241 775 -1147 
L 775 -588 
Q 1028 -725 1275 -790 
Q 1522 -856 1778 -856 
Q 2344 -856 2625 -561 
Q 2906 -266 2906 331 
L 2906 616 
Q 2728 306 2450 153 
Q 2172 0 1784 0 
Q 1141 0 747 490 
Q 353 981 353 1791 
Q 353 2603 747 3093 
Q 1141 3584 1784 3584 
Q 2172 3584 2450 3431 
Q 2728 3278 2906 2969 
L 2906 3500 
L 3481 3500 
L 3481 434 
z
" transform="scale(0.015625)"/>
       <path id="DejaVuSans-68" d="M 3513 2113 
L 3513 0 
L 2938 0 
L 2938 2094 
Q 2938 2591 2744 2837 
Q 2550 3084 2163 3084 
Q 1697 3084 1428 2787 
Q 1159 2491 1159 1978 
L 1159 0 
L 581 0 
L 581 4863 
L 1159 4863 
L 1159 2956 
Q 1366 3272 1645 3428 
Q 1925 3584 2291 3584 
Q 2894 3584 3203 3211 
Q 3513 2838 3513 2113 
z
" transform="scale(0.015625)"/>
       <path id="DejaVuSans-6c" d="M 603 4863 
L 1178 4863 
L 1178 0 
L 603 0 
L 603 4863 
z
" transform="scale(0.015625)"/>
       <path id="DejaVuSans-79" d="M 2059 -325 
Q 1816 -950 1584 -1140 
Q 1353 -1331 966 -1331 
L 506 -1331 
L 506 -850 
L 844 -850 
Q 1081 -850 1212 -737 
Q 1344 -625 1503 -206 
L 1606 56 
L 191 3500 
L 800 3500 
L 1894 763 
L 2988 3500 
L 3597 3500 
L 2059 -325 
z
" transform="scale(0.015625)"/>
       <path id="DejaVuSans-20" transform="scale(0.015625)"/>
       <path id="DejaVuSans-72" d="M 2631 2963 
Q 2534 3019 2420 3045 
Q 2306 3072 2169 3072 
Q 1681 3072 1420 2755 
Q 1159 2438 1159 1844 
L 1159 0 
L 581 0 
L 581 3500 
L 1159 3500 
L 1159 2956 
Q 1341 3275 1631 3429 
Q 1922 3584 2338 3584 
Q 2397 3584 2469 3576 
Q 2541 3569 2628 3553 
L 2631 2963 
z
" transform="scale(0.015625)"/>
       <path id="DejaVuSans-65" d="M 3597 1894 
L 3597 1613 
L 953 1613 
Q 991 1019 1311 708 
Q 1631 397 2203 397 
Q 2534 397 2845 478 
Q 3156 559 3463 722 
L 3463 178 
Q 3153 47 2828 -22 
Q 2503 -91 2169 -91 
Q 1331 -91 842 396 
Q 353 884 353 1716 
Q 353 2575 817 3079 
Q 1281 3584 2069 3584 
Q 2775 3584 3186 3129 
Q 3597 2675 3597 1894 
z
M 3022 2063 
Q 3016 2534 2758 2815 
Q 2500 3097 2075 3097 
Q 1594 3097 1305 2825 
Q 1016 2553 972 2059 
L 3022 2063 
z
" transform="scale(0.015625)"/>
       <path id="DejaVuSans-77" d="M 269 3500 
L 844 3500 
L 1563 769 
L 2278 3500 
L 2956 3500 
L 3675 769 
L 4391 3500 
L 4966 3500 
L 4050 0 
L 3372 0 
L 2619 2869 
L 1863 0 
L 1184 0 
L 269 3500 
z
" transform="scale(0.015625)"/>
       <path id="DejaVuSans-61" d="M 2194 1759 
Q 1497 1759 1228 1600 
Q 959 1441 959 1056 
Q 959 750 1161 570 
Q 1363 391 1709 391 
Q 2188 391 2477 730 
Q 2766 1069 2766 1631 
L 2766 1759 
L 2194 1759 
z
M 3341 1997 
L 3341 0 
L 2766 0 
L 2766 531 
Q 2569 213 2275 61 
Q 1981 -91 1556 -91 
Q 1019 -91 701 211 
Q 384 513 384 1019 
Q 384 1609 779 1909 
Q 1175 2209 1959 2209 
L 2766 2209 
L 2766 2266 
Q 2766 2663 2505 2880 
Q 2244 3097 1772 3097 
Q 1472 3097 1187 3025 
Q 903 2953 641 2809 
L 641 3341 
Q 956 3463 1253 3523 
Q 1550 3584 1831 3584 
Q 2591 3584 2966 3190 
Q 3341 2797 3341 1997 
z
" transform="scale(0.015625)"/>
       <path id="DejaVuSans-64" d="M 2906 2969 
L 2906 4863 
L 3481 4863 
L 3481 0 
L 2906 0 
L 2906 525 
Q 2725 213 2448 61 
Q 2172 -91 1784 -91 
Q 1150 -91 751 415 
Q 353 922 353 1747 
Q 353 2572 751 3078 
Q 1150 3584 1784 3584 
Q 2172 3584 2448 3432 
Q 2725 3281 2906 2969 
z
M 947 1747 
Q 947 1113 1208 752 
Q 1469 391 1925 391 
Q 2381 391 2643 752 
Q 2906 1113 2906 1747 
Q 2906 2381 2643 2742 
Q 2381 3103 1925 3103 
Q 1469 3103 1208 2742 
Q 947 2381 947 1747 
z
" transform="scale(0.015625)"/>
       <path id="DejaVuSans-6e" d="M 3513 2113 
L 3513 0 
L 2938 0 
L 2938 2094 
Q 2938 2591 2744 2837 
Q 2550 3084 2163 3084 
Q 1697 3084 1428 2787 
Q 1159 2491 1159 1978 
L 1159 0 
L 581 0 
L 581 3500 
L 1159 3500 
L 1159 2956 
Q 1366 3272 1645 3428 
Q 1925 3584 2291 3584 
Q 2894 3584 3203 3211 
Q 3513 2838 3513 2113 
z
" transform="scale(0.015625)"/>
       <path id="DejaVuSans-73" d="M 2834 3397 
L 2834 2853 
Q 2591 2978 2328 3040 
Q 2066 3103 1784 3103 
Q 1356 3103 1142 2972 
Q 928 2841 928 2578 
Q 928 2378 1081 2264 
Q 1234 2150 1697 2047 
L 1894 2003 
Q 2506 1872 2764 1633 
Q 3022 1394 3022 966 
Q 3022 478 2636 193 
Q 2250 -91 1575 -91 
Q 1294 -91 989 -36 
Q 684 19 347 128 
L 347 722 
Q 666 556 975 473 
Q 1284 391 1588 391 
Q 1994 391 2212 530 
Q 2431 669 2431 922 
Q 2431 1156 2273 1281 
Q 2116 1406 1581 1522 
L 1381 1569 
Q 847 1681 609 1914 
Q 372 2147 372 2553 
Q 372 3047 722 3315 
Q 1072 3584 1716 3584 
Q 2034 3584 2315 3537 
Q 2597 3491 2834 3397 
z
" transform="scale(0.015625)"/>
       <path id="DejaVuSans-74" d="M 1172 4494 
L 1172 3500 
L 2356 3500 
L 2356 3053 
L 1172 3053 
L 1172 1153 
Q 1172 725 1289 603 
Q 1406 481 1766 481 
L 2356 481 
L 2356 0 
L 1766 0 
Q 1100 0 847 248 
Q 594 497 594 1153 
L 594 3053 
L 172 3053 
L 172 3500 
L 594 3500 
L 594 4494 
L 1172 4494 
z
" transform="scale(0.015625)"/>
      </defs>
      <use xlink:href="#DejaVuSans-48"/>
      <use xlink:href="#DejaVuSans-69" x="75.195312"/>
      <use xlink:href="#DejaVuSans-67" x="102.978516"/>
      <use xlink:href="#DejaVuSans-68" x="166.455078"/>
      <use xlink:href="#DejaVuSans-6c" x="229.833984"/>
      <use xlink:href="#DejaVuSans-79" x="257.617188"/>
      <use xlink:href="#DejaVuSans-20" x="316.796875"/>
      <use xlink:href="#DejaVuSans-72" x="348.583984"/>
      <use xlink:href="#DejaVuSans-65" x="387.447266"/>
      <use xlink:href="#DejaVuSans-77" x="448.970703"/>
      <use xlink:href="#DejaVuSans-61" x="530.757812"/>
      <use xlink:href="#DejaVuSans-72" x="592.037109"/>
      <use xlink:href="#DejaVuSans-64" x="631.400391"/>
      <use xlink:href="#DejaVuSans-69" x="694.876953"/>
      <use xlink:href="#DejaVuSans-6e" x="722.660156"/>
      <use xlink:href="#DejaVuSans-67" x="786.039062"/>
      <use xlink:href="#DejaVuSans-20" x="849.515625"/>
      <use xlink:href="#DejaVuSans-73" x="881.302734"/>
      <use xlink:href="#DejaVuSans-74" x="933.402344"/>
      <use xlink:href="#DejaVuSans-61" x="972.611328"/>
      <use xlink:href="#DejaVuSans-74" x="1033.890625"/>
      <use xlink:href="#DejaVuSans-65" x="1073.099609"/>
     </g>
    </g>
    <g id="PathCollection_8">
     <g>
      <use xlink:href="#mfdefd2a362" x="342.645" y="41.581875" style="fill: #ffc400; stroke: #ffc400"/>
     </g>
    </g>
    <g id="text_47">
     <!-- State -->
     <g transform="translate(364.245 44.731875)scale(0.12 -0.12)">
      <defs>
       <path id="DejaVuSans-53" d="M 3425 4513 
L 3425 3897 
Q 3066 4069 2747 4153 
Q 2428 4238 2131 4238 
Q 1616 4238 1336 4038 
Q 1056 3838 1056 3469 
Q 1056 3159 1242 3001 
Q 1428 2844 1947 2747 
L 2328 2669 
Q 3034 2534 3370 2195 
Q 3706 1856 3706 1288 
Q 3706 609 3251 259 
Q 2797 -91 1919 -91 
Q 1588 -91 1214 -16 
Q 841 59 441 206 
L 441 856 
Q 825 641 1194 531 
Q 1563 422 1919 422 
Q 2459 422 2753 634 
Q 3047 847 3047 1241 
Q 3047 1584 2836 1778 
Q 2625 1972 2144 2069 
L 1759 2144 
Q 1053 2284 737 2584 
Q 422 2884 422 3419 
Q 422 4038 858 4394 
Q 1294 4750 2059 4750 
Q 2388 4750 2728 4690 
Q 3069 4631 3425 4513 
z
" transform="scale(0.015625)"/>
      </defs>
      <use xlink:href="#DejaVuSans-53"/>
      <use xlink:href="#DejaVuSans-74" x="63.476562"/>
      <use xlink:href="#DejaVuSans-61" x="102.685547"/>
      <use xlink:href="#DejaVuSans-74" x="163.964844"/>
      <use xlink:href="#DejaVuSans-65" x="203.173828"/>
     </g>
    </g>
    <g id="PathCollection_9">
     <g>
      <use xlink:href="#m1c504f9a91" x="342.645" y="59.195625" style="fill: #9f4800; stroke: #9f4800"/>
     </g>
    </g>
    <g id="text_48">
     <!-- Starting state -->
     <g transform="translate(364.245 62.345625)scale(0.12 -0.12)">
      <use xlink:href="#DejaVuSans-53"/>
      <use xlink:href="#DejaVuSans-74" x="63.476562"/>
      <use xlink:href="#DejaVuSans-61" x="102.685547"/>
      <use xlink:href="#DejaVuSans-72" x="163.964844"/>
      <use xlink:href="#DejaVuSans-74" x="205.078125"/>
      <use xlink:href="#DejaVuSans-69" x="244.287109"/>
      <use xlink:href="#DejaVuSans-6e" x="272.070312"/>
      <use xlink:href="#DejaVuSans-67" x="335.449219"/>
      <use xlink:href="#DejaVuSans-20" x="398.925781"/>
      <use xlink:href="#DejaVuSans-73" x="430.712891"/>
      <use xlink:href="#DejaVuSans-74" x="482.8125"/>
      <use xlink:href="#DejaVuSans-61" x="522.021484"/>
      <use xlink:href="#DejaVuSans-74" x="583.300781"/>
      <use xlink:href="#DejaVuSans-65" x="622.509766"/>
     </g>
    </g>
    <g id="line2d_4">
     <path d="M 330.645 75.759375 
L 342.645 75.759375 
L 354.645 75.759375 
" style="fill: none; stroke: #a3a3a3; stroke-width: 1.5; stroke-linecap: square"/>
    </g>
    <g id="text_49">
     <!-- Transition probability -->
     <g transform="translate(364.245 79.959375)scale(0.12 -0.12)">
      <defs>
       <path id="DejaVuSans-54" d="M -19 4666 
L 3928 4666 
L 3928 4134 
L 2272 4134 
L 2272 0 
L 1638 0 
L 1638 4134 
L -19 4134 
L -19 4666 
z
" transform="scale(0.015625)"/>
       <path id="DejaVuSans-6f" d="M 1959 3097 
Q 1497 3097 1228 2736 
Q 959 2375 959 1747 
Q 959 1119 1226 758 
Q 1494 397 1959 397 
Q 2419 397 2687 759 
Q 2956 1122 2956 1747 
Q 2956 2369 2687 2733 
Q 2419 3097 1959 3097 
z
M 1959 3584 
Q 2709 3584 3137 3096 
Q 3566 2609 3566 1747 
Q 3566 888 3137 398 
Q 2709 -91 1959 -91 
Q 1206 -91 779 398 
Q 353 888 353 1747 
Q 353 2609 779 3096 
Q 1206 3584 1959 3584 
z
" transform="scale(0.015625)"/>
       <path id="DejaVuSans-70" d="M 1159 525 
L 1159 -1331 
L 581 -1331 
L 581 3500 
L 1159 3500 
L 1159 2969 
Q 1341 3281 1617 3432 
Q 1894 3584 2278 3584 
Q 2916 3584 3314 3078 
Q 3713 2572 3713 1747 
Q 3713 922 3314 415 
Q 2916 -91 2278 -91 
Q 1894 -91 1617 61 
Q 1341 213 1159 525 
z
M 3116 1747 
Q 3116 2381 2855 2742 
Q 2594 3103 2138 3103 
Q 1681 3103 1420 2742 
Q 1159 2381 1159 1747 
Q 1159 1113 1420 752 
Q 1681 391 2138 391 
Q 2594 391 2855 752 
Q 3116 1113 3116 1747 
z
" transform="scale(0.015625)"/>
       <path id="DejaVuSans-62" d="M 3116 1747 
Q 3116 2381 2855 2742 
Q 2594 3103 2138 3103 
Q 1681 3103 1420 2742 
Q 1159 2381 1159 1747 
Q 1159 1113 1420 752 
Q 1681 391 2138 391 
Q 2594 391 2855 752 
Q 3116 1113 3116 1747 
z
M 1159 2969 
Q 1341 3281 1617 3432 
Q 1894 3584 2278 3584 
Q 2916 3584 3314 3078 
Q 3713 2572 3713 1747 
Q 3713 922 3314 415 
Q 2916 -91 2278 -91 
Q 1894 -91 1617 61 
Q 1341 213 1159 525 
L 1159 0 
L 581 0 
L 581 4863 
L 1159 4863 
L 1159 2969 
z
" transform="scale(0.015625)"/>
      </defs>
      <use xlink:href="#DejaVuSans-54"/>
      <use xlink:href="#DejaVuSans-72" x="46.333984"/>
      <use xlink:href="#DejaVuSans-61" x="87.447266"/>
      <use xlink:href="#DejaVuSans-6e" x="148.726562"/>
      <use xlink:href="#DejaVuSans-73" x="212.105469"/>
      <use xlink:href="#DejaVuSans-69" x="264.205078"/>
      <use xlink:href="#DejaVuSans-74" x="291.988281"/>
      <use xlink:href="#DejaVuSans-69" x="331.197266"/>
      <use xlink:href="#DejaVuSans-6f" x="358.980469"/>
      <use xlink:href="#DejaVuSans-6e" x="420.162109"/>
      <use xlink:href="#DejaVuSans-20" x="483.541016"/>
      <use xlink:href="#DejaVuSans-70" x="515.328125"/>
      <use xlink:href="#DejaVuSans-72" x="578.804688"/>
      <use xlink:href="#DejaVuSans-6f" x="617.667969"/>
      <use xlink:href="#DejaVuSans-62" x="678.849609"/>
      <use xlink:href="#DejaVuSans-61" x="742.326172"/>
      <use xlink:href="#DejaVuSans-62" x="803.605469"/>
      <use xlink:href="#DejaVuSans-69" x="867.082031"/>
      <use xlink:href="#DejaVuSans-6c" x="894.865234"/>
      <use xlink:href="#DejaVuSans-69" x="922.648438"/>
      <use xlink:href="#DejaVuSans-74" x="950.431641"/>
      <use xlink:href="#DejaVuSans-79" x="989.640625"/>
     </g>
    </g>
    <g id="line2d_5">
     <path d="M 330.645 93.373125 
L 342.645 93.373125 
L 354.645 93.373125 
" style="fill: none; stroke: #001c7f; stroke-width: 1.5; stroke-linecap: square"/>
     <g>
      <use xlink:href="#me56e783cbc" x="342.645" y="93.373125" style="fill: #001c7f; stroke: #001c7f; stroke-linejoin: miter"/>
     </g>
    </g>
    <g id="text_50">
     <!-- Action: 0 -->
     <g transform="translate(364.245 97.573125)scale(0.12 -0.12)">
      <defs>
       <path id="DejaVuSans-41" d="M 2188 4044 
L 1331 1722 
L 3047 1722 
L 2188 4044 
z
M 1831 4666 
L 2547 4666 
L 4325 0 
L 3669 0 
L 3244 1197 
L 1141 1197 
L 716 0 
L 50 0 
L 1831 4666 
z
" transform="scale(0.015625)"/>
       <path id="DejaVuSans-63" d="M 3122 3366 
L 3122 2828 
Q 2878 2963 2633 3030 
Q 2388 3097 2138 3097 
Q 1578 3097 1268 2742 
Q 959 2388 959 1747 
Q 959 1106 1268 751 
Q 1578 397 2138 397 
Q 2388 397 2633 464 
Q 2878 531 3122 666 
L 3122 134 
Q 2881 22 2623 -34 
Q 2366 -91 2075 -91 
Q 1284 -91 818 406 
Q 353 903 353 1747 
Q 353 2603 823 3093 
Q 1294 3584 2113 3584 
Q 2378 3584 2631 3529 
Q 2884 3475 3122 3366 
z
" transform="scale(0.015625)"/>
       <path id="DejaVuSans-3a" d="M 750 794 
L 1409 794 
L 1409 0 
L 750 0 
L 750 794 
z
M 750 3309 
L 1409 3309 
L 1409 2516 
L 750 2516 
L 750 3309 
z
" transform="scale(0.015625)"/>
      </defs>
      <use xlink:href="#DejaVuSans-41"/>
      <use xlink:href="#DejaVuSans-63" x="66.658203"/>
      <use xlink:href="#DejaVuSans-74" x="121.638672"/>
      <use xlink:href="#DejaVuSans-69" x="160.847656"/>
      <use xlink:href="#DejaVuSans-6f" x="188.630859"/>
      <use xlink:href="#DejaVuSans-6e" x="249.8125"/>
      <use xlink:href="#DejaVuSans-3a" x="313.191406"/>
      <use xlink:href="#DejaVuSans-20" x="346.882812"/>
      <use xlink:href="#DejaVuSans-30" x="378.669922"/>
     </g>
    </g>
    <g id="line2d_6">
     <path d="M 330.645 110.986875 
L 342.645 110.986875 
L 354.645 110.986875 
" style="fill: none; stroke: #12711c; stroke-width: 1.5; stroke-linecap: square"/>
     <g>
      <use xlink:href="#mdca3ba0a5c" x="342.645" y="110.986875" style="fill: #12711c; stroke: #12711c; stroke-linejoin: miter"/>
     </g>
    </g>
    <g id="text_51">
     <!-- Action: 1 -->
     <g transform="translate(364.245 115.186875)scale(0.12 -0.12)">
      <use xlink:href="#DejaVuSans-41"/>
      <use xlink:href="#DejaVuSans-63" x="66.658203"/>
      <use xlink:href="#DejaVuSans-74" x="121.638672"/>
      <use xlink:href="#DejaVuSans-69" x="160.847656"/>
      <use xlink:href="#DejaVuSans-6f" x="188.630859"/>
      <use xlink:href="#DejaVuSans-6e" x="249.8125"/>
      <use xlink:href="#DejaVuSans-3a" x="313.191406"/>
      <use xlink:href="#DejaVuSans-20" x="346.882812"/>
      <use xlink:href="#DejaVuSans-31" x="378.669922"/>
     </g>
    </g>
   </g>
  </g>
 </g>
 <defs>
  <clipPath id="p088ea37bf1">
   <rect x="7.2" y="7.2" width="504" height="504"/>
  </clipPath>
 </defs>
</svg>
